<mxfile host="Electron" modified="2024-05-01T21:18:00.323Z" agent="Mozilla/5.0 (Macintosh; Intel Mac OS X 10_15_7) AppleWebKit/537.36 (KHTML, like Gecko) draw.io/24.2.5 Chrome/120.0.6099.109 Electron/28.1.0 Safari/537.36" etag="eyaLDAsnCNv0zdaJRF1d" version="24.2.5" type="device">
  <diagram name="Page-1" id="8IIva1NNxxgXeSBfcy8A">
    <mxGraphModel dx="4128" dy="1595" grid="0" gridSize="10" guides="1" tooltips="1" connect="1" arrows="1" fold="1" page="0" pageScale="1" pageWidth="850" pageHeight="1100" math="0" shadow="0">
      <root>
        <mxCell id="0" />
        <mxCell id="1" parent="0" />
        <mxCell id="tEtRJX8jaAbaCsFa3c67-12" value="" style="rounded=1;whiteSpace=wrap;html=1;" parent="1" vertex="1">
          <mxGeometry x="775" y="29" width="381" height="1323" as="geometry" />
        </mxCell>
        <mxCell id="tEtRJX8jaAbaCsFa3c67-13" style="edgeStyle=entityRelationEdgeStyle;rounded=0;orthogonalLoop=1;jettySize=auto;html=1;fontSize=12;startSize=8;endSize=8;flowAnimation=1;entryX=0;entryY=0.25;entryDx=0;entryDy=0;dashed=1;dashPattern=1 4;" parent="1" source="tEtRJX8jaAbaCsFa3c67-2" target="tEtRJX8jaAbaCsFa3c67-12" edge="1">
          <mxGeometry relative="1" as="geometry" />
        </mxCell>
        <mxCell id="9OoVXL_DygHniT45nHHC-19" style="edgeStyle=entityRelationEdgeStyle;rounded=0;orthogonalLoop=1;jettySize=auto;html=1;fontSize=12;startSize=8;endSize=8;flowAnimation=1;" edge="1" parent="1" source="tEtRJX8jaAbaCsFa3c67-2" target="9OoVXL_DygHniT45nHHC-18">
          <mxGeometry relative="1" as="geometry" />
        </mxCell>
        <mxCell id="tEtRJX8jaAbaCsFa3c67-2" value="" style="rounded=1;whiteSpace=wrap;html=1;" parent="1" vertex="1">
          <mxGeometry x="74" y="127" width="264" height="185" as="geometry" />
        </mxCell>
        <mxCell id="tEtRJX8jaAbaCsFa3c67-1" value="" style="shape=image;verticalLabelPosition=bottom;labelBackgroundColor=default;verticalAlign=top;aspect=fixed;imageAspect=0;image=data:image/png,iVBORw0KGgoAAAANSUhEUgAAAOQAAADdCAMAAACc/C7aAAAAllBMVEX////gI07eADzeAD3eADrgHkveAD/gIEzfFUffE0bfDkTeADjfBUL98vT75ur//P387O/2yND41Nrqe4/ysr3ob4Xsipv0wMnxrLj3z9b+9vjumqn64OXtkaHzt8HvnqziOl7lVHDkSGfiNVrrgpXmW3bhK1TnZn7sjJ31xMzpdYrkTWvwp7P64eboaoLiOV3dAC3cACEAhcNcAAAOGUlEQVR4nO1daXeqOhQthAxAVMSh4jzbwXrv+/9/7gGKQggQJBDsuvvLe+1qe3NMcsZ9Tt7e/uEf/kEYvbnnuVPVq6gXJ11HCOjbVUf1SmpEb2NqPqBlLFQvpU58Ey0E3f7izZxifJUSku7tWy6ZdXN/5/XwDrSblOgmmqtb9sVRuyrZWMNIyt31G32kaUQf/yqdO6Q3ITV0Dr9xtoIvLPKueGEyMY3Oa7SV2+vWYmPUU7w0idhG51WzAw3b1aMvTdJXvTZpGJG7kHP/y/39S38z96oXJwuDSCrr5H81N7QYrPUvUbNfkT9wCL7awbiQGgSe6vVJwQbGjubF1JLA9q+QkuDQFfgM/v9CNRZYn6teYXV44H73ulsrJaMvpfn69/Lgn1Y0Cv5vYUOOjP4uH1/dYLq+NkXBdXSPvG0MYV5Ur7Ii/I20gn082zhLRk0DE9XLrARH1+Da/+/eyBbRh/HSwZfvjQcCzPRcGTX4rXqhVXCC5ti/j3a+jJqmv3JMomHgG4gjX63GgHeqV1oBCG78kBIVyehr4KXqpT4PZK1iyYHX2cpex/lxPc9z5/Ou0ymw40fQf3MKb2SAdnjqjrtc7U9raCEdAIQQAEDXkQXXp/F56WZkHE92N5YAyQM8NSsOC+dzdVkDA1CLQMjadAyhaVFgWJv9JF0RmPx13sZs5MGHoS615Z5PmoF86Yq3glCAtuN+Yq2d/7r3gLIAdKhGwvcTBVZq73IlNZG+XXiPmzqa+7ZS7FcPCiTsTTQktry0oOAwvMnp9EV3UkONByPTD4uW2UJWUEoH7vUPvS3E7mTj+rUzNswKIgbAxNidw/v5LqRd/ch61aSI0wUQ/PAL5KRg1Pc/MSE7qWlk1KCMM5QZ3pYGAcfZ9CKoedaNiegeBU+XILClrwVPPmhKxg/jKY2aL6fgz9nNuAOdP3K3sRz0RvIDfQHHpkaAJjKwy7xkUxNCuvXLOBRU9a8s5Eq1jA0c14lyGetXPMrPqpYyIdL39bMFMmoouabDp1wZvTbICLfJRW1sqYrINdTajivIV3JVR4h+5MnooTbIyIZaPV2DWJqjN1HsA0RgguY5SJ/gpzHOLzg1Byb9sQzcaOsrY9Wl4GxVuuRxsImsKzVGl1C6POtKXfI4KCPOLUtoVzWXP1uBUkxTMJJJ+IiehqsxCpxBe7YxfVrPUQ7GrJD6cS+2YD60GQDGv3nwDo0nq3o/s7XeKhH9U5lcYYyDh2l5/nrnfa/pVosOagjEVEIGsT0ICrnicPrD8dampB3GPw62BttJGG9xCkxnoemImm3bwitYYsRHMrsNBA/szLbat4ER2APZYSgxRKhCO22NY8MFS1ZKFcIMASZ3V22usQiI6XJyU+40q3w56OBWy0hY7cnJudNZkZDf7bKJDDBhosYBr+BkFOieIeD8UnugM1mOd27sV1DY61UpGdcPm7EeXcBfrpEbjpxbrVhtxtXpZRHx8pmUIqwvVcAGS49cZ+qPPDPy05b0BgdQZxf+nV3Iz6tEi7G+lMDUmJzjdJtHVmCjsRj2UkgONQDrFybo/4G5ti4ndzdqqZEkKYprv4gclTrcd3y3Uu8QY8QmjseFefzsrRSktjUKYpxYq+dl9408YGRVR1byWDlyAKk9YIscnZEQ6ySTFNtpkwnBkOrbM3tQOx+GoOIwskpAs3YkVyGxkEFOk1T72XxgCBsAM7N39tAGSwkv40k/3V/nTL5L5Q2z+aKXFuwlPg6GjLJx3sc7m5bTi2wxIYZFGyrJxAJ0fRrPJsvlZLUYfGsGLc83hX8yhXxbtiRdHrLyfVgmKUX7foCNPhNHY9TuyFkYZJAt5NvbZxvUT3VgK6/K1Sp7WQEot0Fv20L/7gnktwK1OLAsBTu3KotbndASBs2tVy4Lmm5fBAWta6e2JgnKgeae1152KuyVgPKZhb12F7cEQYrG+IwzZlO8EopLXPNNm6uxYhCYvTBfHAMpOS2tkJgm8ZHud20XcuKtB4I5QPjRXARNinSqrTeXfYDB12Z9tHSh9lc1EGpdCxw8enPYCUDf44nXZfIuU8c777cAtI4LEwATASH/YA1M3DBdYI7yKmI993xCqGorpXyI9B3sMNlcezcxKabneWMNtMy+5nt2V6yh2bn666nKGR/uHpXMxdSLYGpKEb7/ulcaojgDsTdcg/aIKTLaZhHsny+kyGF9oL+pobfySZiCa/aFLDszzvtui5iiHU8TapzLyeijv25HewUVHFLU/++jtIw+hlYb4jXRdv3ek4NHp6MW9AOx3UDy0YfKN7OByWG9i/JMtVW7kC1ofWqkXX8O1RqTZtr1p2ulFxM10Mke4KQyXyRqKCtjoFD9CCUHpGCvTkqrkMksDR/KpCxMS0rEXhUbIb8WKxkjRdoHNjrd96DGkjQ8AG6nxCtoWEhHCY+/XCdedfRVkBEan1c4VqB8mh/KqIBy0fyk1G7zPkH9qYEUzo37BI06Azc0fmBFcuiyMW+ahtmgg/5A090nSub6Tht2CRoLmhNouLeviUF+HDQ7vcBQ81xMs1tpK5Gx2a0U6FavB7MGW4mUzb9nxzzUCVPZ+6sNNjGKMCPqgdvcVjYy75aPY2OqJ5/yWiuyVI902aUN7fM1yeRrbcL1ZSI6vumHf16x6IxwYWQ335XEdA8ogRhDQg3R4I0/0sA6yzYusjzXz/hceyRIauKfV8uRHVPrcpy6WbKUbIudWJeXB/EvkGQKoiR/Z8akGUVVNk9IP4jfyE0cyEkLvLOBvuhjdLxWeP8C7eW6CUjGs8BTlnaFae7Pd5eftw+Bp2KMDvfbFaDLsJKpXEaByt4BZGir4F/mXMpgLoncNjEp3nna00Y8vXPXcF7w85iavj/ZS+vRIOUk+vhLFpIHS0p+J3W4+MT2WUSl2UQPhQ94ljKYiORVsiH4O6m4REf15SI1LYTv829vGte7a2J0SU+cC6focE2LMMgg8daRlDJIL1Wl4pJmOn9vOi6WWAaT1CmwzpWFtM7L+HGXEmbNUyviCnm+Tbdaxn/cmrBChs5JNSGRl1iSIUHGt37qAnFdxR0NOcHJhCtkDeX1OruV7iToTGOHS04VZJlShbwSkgeumfpD8hIemV+9jt5Pf24lEDhxsfOROa6mopAaTXMSDzDMs6zyl3/jpXL+pDiCj/ihXiU9TMUxaumtdI2rASwo9BhXKv+kipCBonkobUlFEJ6W0FlOvq9SrVUhXSAiGC+quHW2E4vhsCQ2b5e3ciNZKgtUqrVcFrHRo/sj+nAhD2FcdT8K0kp23I8dxOev9YJsOS4cFU8i2lSVYWRhXPUZ/VPS3hs9cJdEyOM2jEIPpDASvvtfVXpvw7gqukLSkjtZo8MwhbOrJzcUY+7ch147VXyBMPsYeQNS3NYQ86wkMbZ0fNgvPsTUyIM0VcVMXr0J5/qxytvI3CQxDvqehVaHH/FZlVLQdajAzeURTDUJQcqou9hw2iopnut7jb3wcFkyyzyib3/mgT6STb0KrkDkqYZtu6bU4sCgcuIpPhHbq6B3opFYwRVBcsn1TtX6FIw/ZSL6vC8H9zcLfMOcN+jsKYyr3UpoxlPcu+etJI3cSTMKaCSiV2lmBKbxNO28Ah8WRQ4O1Uz5lMF+Bd0DaSLf/vH8aX0EyAhbNbSgPc/UhSSZbq8wtcqOhoD2DFBLAX3z5AaQY7Lk9Pm8u/PIIjt2TUzl59rqrC1zrPjuPhcmUzN5ZDp+/kr0deLofT9xYnU2D12CJGp+jBNCxhKsXn39Zx9lfQJopBZzEf4bmDL591jKqq6W0J/huMRJC0H/pBZTwn6A4VvCB6m7YWD6/mUZZR81IjonNSHum/uRWbJkYkt8YpOHPindmA3tE+dMeeL+oeEkQ7IG+gUmpBQVGYIt1+kSb+QCZyYVJC8JkIMVLpqi/xDR2PIL3Cth/UwOTKWJCg6+qIrl1hYYkYUt+5AxDUY8txO+Zxd3G+CO/ydrQHe1BbmvxkFT380ySTXimUg7OAlxV0B6yJELZzki/Jln0KTGepHDfRGfMn9NI8RSS1aDLcs3uLOtbqBw5HUIEgy6s7fj91xilCvs65CQDxhLEqpiXzvecjb+Oh02m81p8DHpF/ogHWFOOr4+xxwLyZo9rBUg3r6lX4/8IyNPlZGvS+IgnEC55S4fxTSJbNZ6MRC2kNGkrrtuxVzWUAvBDlkgmYoWRZO67kUhWwZzrgGME14ApGDkZkQ0NPJQ78w0oKJp8AnEx7tgywieevngH196j7EjPWU1OgrieTweYYGWcZwFxob/EqFG7xJFcack3kPd6NxyQ5hQfX0raHb5I/1irO9bAgFqTcy+qgw3mO8bCAhHw8hh6GncCwkevptz9Y6SWenWYmGbFjJ2+0ncp+W/ZGrETP6VYYt1dY074uge7fXg7DF2bsTzC3D84clOqKmwovbWkvjpciqI3MFEEMVj0HGwkVgOoUwJFtwOg2P88oVU6RfZRy5WPOMBksZwYP4+GbGdJLEFFDBovYLO4YNtoglgHRl5fI+PrRK9EhZpGbHB5lP7hkY36vohq+IrrXNMK8WCPkKj+YyONGxSTjk0vlJbtkC6sgblyuik6puY7tKh4s/fY801jxrhptKYJuVN6z6+SGjFw5mtGBF9zwswFq97VN/Y5wOJ/cW1EdPXtRxzLXEdsal/vUQIVQarxHB/TOn4dfcrA90ENZ2A4+R1DX0WZrE3rSCiXyXfeHgFeLu7A0AoOC1/3ya+OZfbbYQWoKP3XyjhWy98Nxv6O0g3s9cNDnOxQjpFuvFnP5z/xi30MZ1Zu+BJ7V9nDuPovEgh6kXxP5GM94n939jTAAAAAElFTkSuQmCC;" parent="1" vertex="1">
          <mxGeometry x="129" y="153" width="127.93" height="124" as="geometry" />
        </mxCell>
        <mxCell id="9OoVXL_DygHniT45nHHC-21" style="edgeStyle=entityRelationEdgeStyle;rounded=0;orthogonalLoop=1;jettySize=auto;html=1;fontSize=12;startSize=8;endSize=8;flowAnimation=1;" edge="1" parent="1" source="tEtRJX8jaAbaCsFa3c67-3" target="9OoVXL_DygHniT45nHHC-20">
          <mxGeometry relative="1" as="geometry" />
        </mxCell>
        <mxCell id="tEtRJX8jaAbaCsFa3c67-3" value="" style="rounded=1;whiteSpace=wrap;html=1;" parent="1" vertex="1">
          <mxGeometry x="66" y="447" width="269" height="185" as="geometry" />
        </mxCell>
        <mxCell id="tEtRJX8jaAbaCsFa3c67-4" value="" style="shape=image;verticalLabelPosition=bottom;labelBackgroundColor=default;verticalAlign=top;aspect=fixed;imageAspect=0;image=data:image/png,iVBORw0KGgoAAAANSUhEUgAAAOQAAADdCAMAAACc/C7aAAAAllBMVEX////gI07eADzeAD3eADrgHkveAD/gIEzfFUffE0bfDkTeADjfBUL98vT75ur//P387O/2yND41Nrqe4/ysr3ob4Xsipv0wMnxrLj3z9b+9vjumqn64OXtkaHzt8HvnqziOl7lVHDkSGfiNVrrgpXmW3bhK1TnZn7sjJ31xMzpdYrkTWvwp7P64eboaoLiOV3dAC3cACEAhcNcAAAOGUlEQVR4nO1daXeqOhQthAxAVMSh4jzbwXrv+/9/7gGKQggQJBDsuvvLe+1qe3NMcsZ9Tt7e/uEf/kEYvbnnuVPVq6gXJ11HCOjbVUf1SmpEb2NqPqBlLFQvpU58Ey0E3f7izZxifJUSku7tWy6ZdXN/5/XwDrSblOgmmqtb9sVRuyrZWMNIyt31G32kaUQf/yqdO6Q3ITV0Dr9xtoIvLPKueGEyMY3Oa7SV2+vWYmPUU7w0idhG51WzAw3b1aMvTdJXvTZpGJG7kHP/y/39S38z96oXJwuDSCrr5H81N7QYrPUvUbNfkT9wCL7awbiQGgSe6vVJwQbGjubF1JLA9q+QkuDQFfgM/v9CNRZYn6teYXV44H73ulsrJaMvpfn69/Lgn1Y0Cv5vYUOOjP4uH1/dYLq+NkXBdXSPvG0MYV5Ur7Ii/I20gn082zhLRk0DE9XLrARH1+Da/+/eyBbRh/HSwZfvjQcCzPRcGTX4rXqhVXCC5ti/j3a+jJqmv3JMomHgG4gjX63GgHeqV1oBCG78kBIVyehr4KXqpT4PZK1iyYHX2cpex/lxPc9z5/Ou0ymw40fQf3MKb2SAdnjqjrtc7U9raCEdAIQQAEDXkQXXp/F56WZkHE92N5YAyQM8NSsOC+dzdVkDA1CLQMjadAyhaVFgWJv9JF0RmPx13sZs5MGHoS615Z5PmoF86Yq3glCAtuN+Yq2d/7r3gLIAdKhGwvcTBVZq73IlNZG+XXiPmzqa+7ZS7FcPCiTsTTQktry0oOAwvMnp9EV3UkONByPTD4uW2UJWUEoH7vUPvS3E7mTj+rUzNswKIgbAxNidw/v5LqRd/ch61aSI0wUQ/PAL5KRg1Pc/MSE7qWlk1KCMM5QZ3pYGAcfZ9CKoedaNiegeBU+XILClrwVPPmhKxg/jKY2aL6fgz9nNuAOdP3K3sRz0RvIDfQHHpkaAJjKwy7xkUxNCuvXLOBRU9a8s5Eq1jA0c14lyGetXPMrPqpYyIdL39bMFMmoouabDp1wZvTbICLfJRW1sqYrINdTajivIV3JVR4h+5MnooTbIyIZaPV2DWJqjN1HsA0RgguY5SJ/gpzHOLzg1Byb9sQzcaOsrY9Wl4GxVuuRxsImsKzVGl1C6POtKXfI4KCPOLUtoVzWXP1uBUkxTMJJJ+IiehqsxCpxBe7YxfVrPUQ7GrJD6cS+2YD60GQDGv3nwDo0nq3o/s7XeKhH9U5lcYYyDh2l5/nrnfa/pVosOagjEVEIGsT0ICrnicPrD8dampB3GPw62BttJGG9xCkxnoemImm3bwitYYsRHMrsNBA/szLbat4ER2APZYSgxRKhCO22NY8MFS1ZKFcIMASZ3V22usQiI6XJyU+40q3w56OBWy0hY7cnJudNZkZDf7bKJDDBhosYBr+BkFOieIeD8UnugM1mOd27sV1DY61UpGdcPm7EeXcBfrpEbjpxbrVhtxtXpZRHx8pmUIqwvVcAGS49cZ+qPPDPy05b0BgdQZxf+nV3Iz6tEi7G+lMDUmJzjdJtHVmCjsRj2UkgONQDrFybo/4G5ti4ndzdqqZEkKYprv4gclTrcd3y3Uu8QY8QmjseFefzsrRSktjUKYpxYq+dl9408YGRVR1byWDlyAKk9YIscnZEQ6ySTFNtpkwnBkOrbM3tQOx+GoOIwskpAs3YkVyGxkEFOk1T72XxgCBsAM7N39tAGSwkv40k/3V/nTL5L5Q2z+aKXFuwlPg6GjLJx3sc7m5bTi2wxIYZFGyrJxAJ0fRrPJsvlZLUYfGsGLc83hX8yhXxbtiRdHrLyfVgmKUX7foCNPhNHY9TuyFkYZJAt5NvbZxvUT3VgK6/K1Sp7WQEot0Fv20L/7gnktwK1OLAsBTu3KotbndASBs2tVy4Lmm5fBAWta6e2JgnKgeae1152KuyVgPKZhb12F7cEQYrG+IwzZlO8EopLXPNNm6uxYhCYvTBfHAMpOS2tkJgm8ZHud20XcuKtB4I5QPjRXARNinSqrTeXfYDB12Z9tHSh9lc1EGpdCxw8enPYCUDf44nXZfIuU8c777cAtI4LEwATASH/YA1M3DBdYI7yKmI993xCqGorpXyI9B3sMNlcezcxKabneWMNtMy+5nt2V6yh2bn666nKGR/uHpXMxdSLYGpKEb7/ulcaojgDsTdcg/aIKTLaZhHsny+kyGF9oL+pobfySZiCa/aFLDszzvtui5iiHU8TapzLyeijv25HewUVHFLU/++jtIw+hlYb4jXRdv3ek4NHp6MW9AOx3UDy0YfKN7OByWG9i/JMtVW7kC1ofWqkXX8O1RqTZtr1p2ulFxM10Mke4KQyXyRqKCtjoFD9CCUHpGCvTkqrkMksDR/KpCxMS0rEXhUbIb8WKxkjRdoHNjrd96DGkjQ8AG6nxCtoWEhHCY+/XCdedfRVkBEan1c4VqB8mh/KqIBy0fyk1G7zPkH9qYEUzo37BI06Azc0fmBFcuiyMW+ahtmgg/5A090nSub6Tht2CRoLmhNouLeviUF+HDQ7vcBQ81xMs1tpK5Gx2a0U6FavB7MGW4mUzb9nxzzUCVPZ+6sNNjGKMCPqgdvcVjYy75aPY2OqJ5/yWiuyVI902aUN7fM1yeRrbcL1ZSI6vumHf16x6IxwYWQ335XEdA8ogRhDQg3R4I0/0sA6yzYusjzXz/hceyRIauKfV8uRHVPrcpy6WbKUbIudWJeXB/EvkGQKoiR/Z8akGUVVNk9IP4jfyE0cyEkLvLOBvuhjdLxWeP8C7eW6CUjGs8BTlnaFae7Pd5eftw+Bp2KMDvfbFaDLsJKpXEaByt4BZGir4F/mXMpgLoncNjEp3nna00Y8vXPXcF7w85iavj/ZS+vRIOUk+vhLFpIHS0p+J3W4+MT2WUSl2UQPhQ94ljKYiORVsiH4O6m4REf15SI1LYTv829vGte7a2J0SU+cC6focE2LMMgg8daRlDJIL1Wl4pJmOn9vOi6WWAaT1CmwzpWFtM7L+HGXEmbNUyviCnm+Tbdaxn/cmrBChs5JNSGRl1iSIUHGt37qAnFdxR0NOcHJhCtkDeX1OruV7iToTGOHS04VZJlShbwSkgeumfpD8hIemV+9jt5Pf24lEDhxsfOROa6mopAaTXMSDzDMs6zyl3/jpXL+pDiCj/ihXiU9TMUxaumtdI2rASwo9BhXKv+kipCBonkobUlFEJ6W0FlOvq9SrVUhXSAiGC+quHW2E4vhsCQ2b5e3ciNZKgtUqrVcFrHRo/sj+nAhD2FcdT8K0kp23I8dxOev9YJsOS4cFU8i2lSVYWRhXPUZ/VPS3hs9cJdEyOM2jEIPpDASvvtfVXpvw7gqukLSkjtZo8MwhbOrJzcUY+7ch147VXyBMPsYeQNS3NYQ86wkMbZ0fNgvPsTUyIM0VcVMXr0J5/qxytvI3CQxDvqehVaHH/FZlVLQdajAzeURTDUJQcqou9hw2iopnut7jb3wcFkyyzyib3/mgT6STb0KrkDkqYZtu6bU4sCgcuIpPhHbq6B3opFYwRVBcsn1TtX6FIw/ZSL6vC8H9zcLfMOcN+jsKYyr3UpoxlPcu+etJI3cSTMKaCSiV2lmBKbxNO28Ah8WRQ4O1Uz5lMF+Bd0DaSLf/vH8aX0EyAhbNbSgPc/UhSSZbq8wtcqOhoD2DFBLAX3z5AaQY7Lk9Pm8u/PIIjt2TUzl59rqrC1zrPjuPhcmUzN5ZDp+/kr0deLofT9xYnU2D12CJGp+jBNCxhKsXn39Zx9lfQJopBZzEf4bmDL591jKqq6W0J/huMRJC0H/pBZTwn6A4VvCB6m7YWD6/mUZZR81IjonNSHum/uRWbJkYkt8YpOHPindmA3tE+dMeeL+oeEkQ7IG+gUmpBQVGYIt1+kSb+QCZyYVJC8JkIMVLpqi/xDR2PIL3Cth/UwOTKWJCg6+qIrl1hYYkYUt+5AxDUY8txO+Zxd3G+CO/ydrQHe1BbmvxkFT380ySTXimUg7OAlxV0B6yJELZzki/Jln0KTGepHDfRGfMn9NI8RSS1aDLcs3uLOtbqBw5HUIEgy6s7fj91xilCvs65CQDxhLEqpiXzvecjb+Oh02m81p8DHpF/ogHWFOOr4+xxwLyZo9rBUg3r6lX4/8IyNPlZGvS+IgnEC55S4fxTSJbNZ6MRC2kNGkrrtuxVzWUAvBDlkgmYoWRZO67kUhWwZzrgGME14ApGDkZkQ0NPJQ78w0oKJp8AnEx7tgywieevngH196j7EjPWU1OgrieTweYYGWcZwFxob/EqFG7xJFcack3kPd6NxyQ5hQfX0raHb5I/1irO9bAgFqTcy+qgw3mO8bCAhHw8hh6GncCwkevptz9Y6SWenWYmGbFjJ2+0ncp+W/ZGrETP6VYYt1dY074uge7fXg7DF2bsTzC3D84clOqKmwovbWkvjpciqI3MFEEMVj0HGwkVgOoUwJFtwOg2P88oVU6RfZRy5WPOMBksZwYP4+GbGdJLEFFDBovYLO4YNtoglgHRl5fI+PrRK9EhZpGbHB5lP7hkY36vohq+IrrXNMK8WCPkKj+YyONGxSTjk0vlJbtkC6sgblyuik6puY7tKh4s/fY801jxrhptKYJuVN6z6+SGjFw5mtGBF9zwswFq97VN/Y5wOJ/cW1EdPXtRxzLXEdsal/vUQIVQarxHB/TOn4dfcrA90ENZ2A4+R1DX0WZrE3rSCiXyXfeHgFeLu7A0AoOC1/3ya+OZfbbYQWoKP3XyjhWy98Nxv6O0g3s9cNDnOxQjpFuvFnP5z/xi30MZ1Zu+BJ7V9nDuPovEgh6kXxP5GM94n939jTAAAAAElFTkSuQmCC;" parent="1" vertex="1">
          <mxGeometry x="142.03" y="473" width="127.93" height="124" as="geometry" />
        </mxCell>
        <mxCell id="tEtRJX8jaAbaCsFa3c67-7" style="edgeStyle=entityRelationEdgeStyle;rounded=0;orthogonalLoop=1;jettySize=auto;html=1;entryX=0;entryY=0.5;entryDx=0;entryDy=0;fontSize=12;startSize=8;endSize=8;" parent="1" source="tEtRJX8jaAbaCsFa3c67-5" target="tEtRJX8jaAbaCsFa3c67-2" edge="1">
          <mxGeometry relative="1" as="geometry" />
        </mxCell>
        <mxCell id="tEtRJX8jaAbaCsFa3c67-8" style="edgeStyle=entityRelationEdgeStyle;rounded=0;orthogonalLoop=1;jettySize=auto;html=1;entryX=0;entryY=0.5;entryDx=0;entryDy=0;fontSize=12;startSize=8;endSize=8;" parent="1" source="tEtRJX8jaAbaCsFa3c67-5" target="tEtRJX8jaAbaCsFa3c67-3" edge="1">
          <mxGeometry relative="1" as="geometry" />
        </mxCell>
        <mxCell id="9OoVXL_DygHniT45nHHC-3" style="edgeStyle=entityRelationEdgeStyle;rounded=0;orthogonalLoop=1;jettySize=auto;html=1;fontSize=12;startSize=8;endSize=8;flowAnimation=1;" edge="1" parent="1" source="tEtRJX8jaAbaCsFa3c67-5" target="9OoVXL_DygHniT45nHHC-2">
          <mxGeometry relative="1" as="geometry" />
        </mxCell>
        <mxCell id="9OoVXL_DygHniT45nHHC-10" style="edgeStyle=entityRelationEdgeStyle;rounded=0;orthogonalLoop=1;jettySize=auto;html=1;entryX=0;entryY=0.5;entryDx=0;entryDy=0;fontSize=12;startSize=8;endSize=8;" edge="1" parent="1" source="tEtRJX8jaAbaCsFa3c67-5" target="9OoVXL_DygHniT45nHHC-7">
          <mxGeometry relative="1" as="geometry" />
        </mxCell>
        <mxCell id="tEtRJX8jaAbaCsFa3c67-5" value="" style="rounded=1;whiteSpace=wrap;html=1;" parent="1" vertex="1">
          <mxGeometry x="-625" y="338" width="244" height="185" as="geometry" />
        </mxCell>
        <mxCell id="tEtRJX8jaAbaCsFa3c67-6" value="" style="shape=image;verticalLabelPosition=bottom;labelBackgroundColor=default;verticalAlign=top;aspect=fixed;imageAspect=0;image=data:image/png,iVBORw0KGgoAAAANSUhEUgAAAOQAAADdCAMAAACc/C7aAAAAllBMVEX////gI07eADzeAD3eADrgHkveAD/gIEzfFUffE0bfDkTeADjfBUL98vT75ur//P387O/2yND41Nrqe4/ysr3ob4Xsipv0wMnxrLj3z9b+9vjumqn64OXtkaHzt8HvnqziOl7lVHDkSGfiNVrrgpXmW3bhK1TnZn7sjJ31xMzpdYrkTWvwp7P64eboaoLiOV3dAC3cACEAhcNcAAAOGUlEQVR4nO1daXeqOhQthAxAVMSh4jzbwXrv+/9/7gGKQggQJBDsuvvLe+1qe3NMcsZ9Tt7e/uEf/kEYvbnnuVPVq6gXJ11HCOjbVUf1SmpEb2NqPqBlLFQvpU58Ey0E3f7izZxifJUSku7tWy6ZdXN/5/XwDrSblOgmmqtb9sVRuyrZWMNIyt31G32kaUQf/yqdO6Q3ITV0Dr9xtoIvLPKueGEyMY3Oa7SV2+vWYmPUU7w0idhG51WzAw3b1aMvTdJXvTZpGJG7kHP/y/39S38z96oXJwuDSCrr5H81N7QYrPUvUbNfkT9wCL7awbiQGgSe6vVJwQbGjubF1JLA9q+QkuDQFfgM/v9CNRZYn6teYXV44H73ulsrJaMvpfn69/Lgn1Y0Cv5vYUOOjP4uH1/dYLq+NkXBdXSPvG0MYV5Ur7Ii/I20gn082zhLRk0DE9XLrARH1+Da/+/eyBbRh/HSwZfvjQcCzPRcGTX4rXqhVXCC5ti/j3a+jJqmv3JMomHgG4gjX63GgHeqV1oBCG78kBIVyehr4KXqpT4PZK1iyYHX2cpex/lxPc9z5/Ou0ymw40fQf3MKb2SAdnjqjrtc7U9raCEdAIQQAEDXkQXXp/F56WZkHE92N5YAyQM8NSsOC+dzdVkDA1CLQMjadAyhaVFgWJv9JF0RmPx13sZs5MGHoS615Z5PmoF86Yq3glCAtuN+Yq2d/7r3gLIAdKhGwvcTBVZq73IlNZG+XXiPmzqa+7ZS7FcPCiTsTTQktry0oOAwvMnp9EV3UkONByPTD4uW2UJWUEoH7vUPvS3E7mTj+rUzNswKIgbAxNidw/v5LqRd/ch61aSI0wUQ/PAL5KRg1Pc/MSE7qWlk1KCMM5QZ3pYGAcfZ9CKoedaNiegeBU+XILClrwVPPmhKxg/jKY2aL6fgz9nNuAOdP3K3sRz0RvIDfQHHpkaAJjKwy7xkUxNCuvXLOBRU9a8s5Eq1jA0c14lyGetXPMrPqpYyIdL39bMFMmoouabDp1wZvTbICLfJRW1sqYrINdTajivIV3JVR4h+5MnooTbIyIZaPV2DWJqjN1HsA0RgguY5SJ/gpzHOLzg1Byb9sQzcaOsrY9Wl4GxVuuRxsImsKzVGl1C6POtKXfI4KCPOLUtoVzWXP1uBUkxTMJJJ+IiehqsxCpxBe7YxfVrPUQ7GrJD6cS+2YD60GQDGv3nwDo0nq3o/s7XeKhH9U5lcYYyDh2l5/nrnfa/pVosOagjEVEIGsT0ICrnicPrD8dampB3GPw62BttJGG9xCkxnoemImm3bwitYYsRHMrsNBA/szLbat4ER2APZYSgxRKhCO22NY8MFS1ZKFcIMASZ3V22usQiI6XJyU+40q3w56OBWy0hY7cnJudNZkZDf7bKJDDBhosYBr+BkFOieIeD8UnugM1mOd27sV1DY61UpGdcPm7EeXcBfrpEbjpxbrVhtxtXpZRHx8pmUIqwvVcAGS49cZ+qPPDPy05b0BgdQZxf+nV3Iz6tEi7G+lMDUmJzjdJtHVmCjsRj2UkgONQDrFybo/4G5ti4ndzdqqZEkKYprv4gclTrcd3y3Uu8QY8QmjseFefzsrRSktjUKYpxYq+dl9408YGRVR1byWDlyAKk9YIscnZEQ6ySTFNtpkwnBkOrbM3tQOx+GoOIwskpAs3YkVyGxkEFOk1T72XxgCBsAM7N39tAGSwkv40k/3V/nTL5L5Q2z+aKXFuwlPg6GjLJx3sc7m5bTi2wxIYZFGyrJxAJ0fRrPJsvlZLUYfGsGLc83hX8yhXxbtiRdHrLyfVgmKUX7foCNPhNHY9TuyFkYZJAt5NvbZxvUT3VgK6/K1Sp7WQEot0Fv20L/7gnktwK1OLAsBTu3KotbndASBs2tVy4Lmm5fBAWta6e2JgnKgeae1152KuyVgPKZhb12F7cEQYrG+IwzZlO8EopLXPNNm6uxYhCYvTBfHAMpOS2tkJgm8ZHud20XcuKtB4I5QPjRXARNinSqrTeXfYDB12Z9tHSh9lc1EGpdCxw8enPYCUDf44nXZfIuU8c777cAtI4LEwATASH/YA1M3DBdYI7yKmI993xCqGorpXyI9B3sMNlcezcxKabneWMNtMy+5nt2V6yh2bn666nKGR/uHpXMxdSLYGpKEb7/ulcaojgDsTdcg/aIKTLaZhHsny+kyGF9oL+pobfySZiCa/aFLDszzvtui5iiHU8TapzLyeijv25HewUVHFLU/++jtIw+hlYb4jXRdv3ek4NHp6MW9AOx3UDy0YfKN7OByWG9i/JMtVW7kC1ofWqkXX8O1RqTZtr1p2ulFxM10Mke4KQyXyRqKCtjoFD9CCUHpGCvTkqrkMksDR/KpCxMS0rEXhUbIb8WKxkjRdoHNjrd96DGkjQ8AG6nxCtoWEhHCY+/XCdedfRVkBEan1c4VqB8mh/KqIBy0fyk1G7zPkH9qYEUzo37BI06Azc0fmBFcuiyMW+ahtmgg/5A090nSub6Tht2CRoLmhNouLeviUF+HDQ7vcBQ81xMs1tpK5Gx2a0U6FavB7MGW4mUzb9nxzzUCVPZ+6sNNjGKMCPqgdvcVjYy75aPY2OqJ5/yWiuyVI902aUN7fM1yeRrbcL1ZSI6vumHf16x6IxwYWQ335XEdA8ogRhDQg3R4I0/0sA6yzYusjzXz/hceyRIauKfV8uRHVPrcpy6WbKUbIudWJeXB/EvkGQKoiR/Z8akGUVVNk9IP4jfyE0cyEkLvLOBvuhjdLxWeP8C7eW6CUjGs8BTlnaFae7Pd5eftw+Bp2KMDvfbFaDLsJKpXEaByt4BZGir4F/mXMpgLoncNjEp3nna00Y8vXPXcF7w85iavj/ZS+vRIOUk+vhLFpIHS0p+J3W4+MT2WUSl2UQPhQ94ljKYiORVsiH4O6m4REf15SI1LYTv829vGte7a2J0SU+cC6focE2LMMgg8daRlDJIL1Wl4pJmOn9vOi6WWAaT1CmwzpWFtM7L+HGXEmbNUyviCnm+Tbdaxn/cmrBChs5JNSGRl1iSIUHGt37qAnFdxR0NOcHJhCtkDeX1OruV7iToTGOHS04VZJlShbwSkgeumfpD8hIemV+9jt5Pf24lEDhxsfOROa6mopAaTXMSDzDMs6zyl3/jpXL+pDiCj/ihXiU9TMUxaumtdI2rASwo9BhXKv+kipCBonkobUlFEJ6W0FlOvq9SrVUhXSAiGC+quHW2E4vhsCQ2b5e3ciNZKgtUqrVcFrHRo/sj+nAhD2FcdT8K0kp23I8dxOev9YJsOS4cFU8i2lSVYWRhXPUZ/VPS3hs9cJdEyOM2jEIPpDASvvtfVXpvw7gqukLSkjtZo8MwhbOrJzcUY+7ch147VXyBMPsYeQNS3NYQ86wkMbZ0fNgvPsTUyIM0VcVMXr0J5/qxytvI3CQxDvqehVaHH/FZlVLQdajAzeURTDUJQcqou9hw2iopnut7jb3wcFkyyzyib3/mgT6STb0KrkDkqYZtu6bU4sCgcuIpPhHbq6B3opFYwRVBcsn1TtX6FIw/ZSL6vC8H9zcLfMOcN+jsKYyr3UpoxlPcu+etJI3cSTMKaCSiV2lmBKbxNO28Ah8WRQ4O1Uz5lMF+Bd0DaSLf/vH8aX0EyAhbNbSgPc/UhSSZbq8wtcqOhoD2DFBLAX3z5AaQY7Lk9Pm8u/PIIjt2TUzl59rqrC1zrPjuPhcmUzN5ZDp+/kr0deLofT9xYnU2D12CJGp+jBNCxhKsXn39Zx9lfQJopBZzEf4bmDL591jKqq6W0J/huMRJC0H/pBZTwn6A4VvCB6m7YWD6/mUZZR81IjonNSHum/uRWbJkYkt8YpOHPindmA3tE+dMeeL+oeEkQ7IG+gUmpBQVGYIt1+kSb+QCZyYVJC8JkIMVLpqi/xDR2PIL3Cth/UwOTKWJCg6+qIrl1hYYkYUt+5AxDUY8txO+Zxd3G+CO/ydrQHe1BbmvxkFT380ySTXimUg7OAlxV0B6yJELZzki/Jln0KTGepHDfRGfMn9NI8RSS1aDLcs3uLOtbqBw5HUIEgy6s7fj91xilCvs65CQDxhLEqpiXzvecjb+Oh02m81p8DHpF/ogHWFOOr4+xxwLyZo9rBUg3r6lX4/8IyNPlZGvS+IgnEC55S4fxTSJbNZ6MRC2kNGkrrtuxVzWUAvBDlkgmYoWRZO67kUhWwZzrgGME14ApGDkZkQ0NPJQ78w0oKJp8AnEx7tgywieevngH196j7EjPWU1OgrieTweYYGWcZwFxob/EqFG7xJFcack3kPd6NxyQ5hQfX0raHb5I/1irO9bAgFqTcy+qgw3mO8bCAhHw8hh6GncCwkevptz9Y6SWenWYmGbFjJ2+0ncp+W/ZGrETP6VYYt1dY074uge7fXg7DF2bsTzC3D84clOqKmwovbWkvjpciqI3MFEEMVj0HGwkVgOoUwJFtwOg2P88oVU6RfZRy5WPOMBksZwYP4+GbGdJLEFFDBovYLO4YNtoglgHRl5fI+PrRK9EhZpGbHB5lP7hkY36vohq+IrrXNMK8WCPkKj+YyONGxSTjk0vlJbtkC6sgblyuik6puY7tKh4s/fY801jxrhptKYJuVN6z6+SGjFw5mtGBF9zwswFq97VN/Y5wOJ/cW1EdPXtRxzLXEdsal/vUQIVQarxHB/TOn4dfcrA90ENZ2A4+R1DX0WZrE3rSCiXyXfeHgFeLu7A0AoOC1/3ya+OZfbbYQWoKP3XyjhWy98Nxv6O0g3s9cNDnOxQjpFuvFnP5z/xi30MZ1Zu+BJ7V9nDuPovEgh6kXxP5GM94n939jTAAAAAElFTkSuQmCC;" parent="1" vertex="1">
          <mxGeometry x="-575" y="368.5" width="127.93" height="124" as="geometry" />
        </mxCell>
        <mxCell id="tEtRJX8jaAbaCsFa3c67-9" value="TCP" style="whiteSpace=wrap;html=1;fillColor=#dae8fc;strokeColor=#6c8ebf;" parent="1" vertex="1">
          <mxGeometry x="-121" y="396" width="66" height="30" as="geometry" />
        </mxCell>
        <mxCell id="tEtRJX8jaAbaCsFa3c67-10" value="API-GATEWAY" style="text;html=1;align=center;verticalAlign=middle;resizable=0;points=[];autosize=1;strokeColor=none;fillColor=none;fontSize=16;" parent="1" vertex="1">
          <mxGeometry x="-625" y="301" width="126" height="31" as="geometry" />
        </mxCell>
        <mxCell id="tEtRJX8jaAbaCsFa3c67-11" value="" style="shape=image;verticalLabelPosition=bottom;labelBackgroundColor=default;verticalAlign=top;aspect=fixed;imageAspect=0;image=https://nats.io/img/logos/nats-horizontal-color.png;rotation=90;" parent="1" vertex="1">
          <mxGeometry x="455" y="579" width="1008.73" height="259.73" as="geometry" />
        </mxCell>
        <mxCell id="tEtRJX8jaAbaCsFa3c67-16" style="edgeStyle=entityRelationEdgeStyle;rounded=0;orthogonalLoop=1;jettySize=auto;html=1;fontSize=12;startSize=8;endSize=8;flowAnimation=1;exitX=0;exitY=0.75;exitDx=0;exitDy=0;dashed=1;dashPattern=1 4;" parent="1" source="tEtRJX8jaAbaCsFa3c67-12" target="tEtRJX8jaAbaCsFa3c67-3" edge="1">
          <mxGeometry relative="1" as="geometry" />
        </mxCell>
        <mxCell id="tEtRJX8jaAbaCsFa3c67-14" value="PRODUCTS-MS" style="text;html=1;align=center;verticalAlign=middle;resizable=0;points=[];autosize=1;strokeColor=none;fillColor=none;fontSize=16;" parent="1" vertex="1">
          <mxGeometry x="74" y="96" width="137" height="31" as="geometry" />
        </mxCell>
        <mxCell id="tEtRJX8jaAbaCsFa3c67-15" value="ORDERS-MS" style="text;html=1;align=center;verticalAlign=middle;resizable=0;points=[];autosize=1;strokeColor=none;fillColor=none;fontSize=16;" parent="1" vertex="1">
          <mxGeometry x="71" y="416" width="116" height="31" as="geometry" />
        </mxCell>
        <mxCell id="tEtRJX8jaAbaCsFa3c67-17" value="CreateProduct" style="text;html=1;align=center;verticalAlign=middle;resizable=0;points=[];autosize=1;strokeColor=none;fillColor=none;fontSize=16;" parent="1" vertex="1">
          <mxGeometry x="585" y="243" width="121" height="31" as="geometry" />
        </mxCell>
        <mxCell id="tEtRJX8jaAbaCsFa3c67-18" value="CreateProduct" style="text;html=1;align=center;verticalAlign=middle;resizable=0;points=[];autosize=1;strokeColor=none;fillColor=none;fontSize=16;" parent="1" vertex="1">
          <mxGeometry x="580" y="724" width="121" height="31" as="geometry" />
        </mxCell>
        <mxCell id="tEtRJX8jaAbaCsFa3c67-24" style="edgeStyle=none;curved=1;rounded=0;orthogonalLoop=1;jettySize=auto;html=1;fontSize=12;startSize=8;endSize=8;" parent="1" source="tEtRJX8jaAbaCsFa3c67-19" target="tEtRJX8jaAbaCsFa3c67-22" edge="1">
          <mxGeometry relative="1" as="geometry" />
        </mxCell>
        <mxCell id="9OoVXL_DygHniT45nHHC-15" style="edgeStyle=none;curved=1;rounded=0;orthogonalLoop=1;jettySize=auto;html=1;fontSize=12;startSize=8;endSize=8;dashed=1;dashPattern=12 12;" edge="1" parent="1" source="tEtRJX8jaAbaCsFa3c67-19" target="9OoVXL_DygHniT45nHHC-14">
          <mxGeometry relative="1" as="geometry" />
        </mxCell>
        <mxCell id="tEtRJX8jaAbaCsFa3c67-19" value="" style="strokeWidth=1;shadow=0;dashed=0;align=center;html=1;shape=mxgraph.mockup.containers.browserWindow;rSize=0;strokeColor=#666666;strokeColor2=#008cff;strokeColor3=#c4c4c4;mainText=,;recursiveResize=0;" parent="1" vertex="1">
          <mxGeometry x="-1655" y="235" width="550" height="380" as="geometry" />
        </mxCell>
        <mxCell id="tEtRJX8jaAbaCsFa3c67-20" value="Ecommerce" style="strokeWidth=1;shadow=0;dashed=0;align=center;html=1;shape=mxgraph.mockup.containers.anchor;fontSize=17;fontColor=#666666;align=left;whiteSpace=wrap;" parent="tEtRJX8jaAbaCsFa3c67-19" vertex="1">
          <mxGeometry x="60" y="12" width="110" height="26" as="geometry" />
        </mxCell>
        <mxCell id="tEtRJX8jaAbaCsFa3c67-21" value="https://ecomerce.com" style="strokeWidth=1;shadow=0;dashed=0;align=center;html=1;shape=mxgraph.mockup.containers.anchor;rSize=0;fontSize=17;fontColor=#666666;align=left;" parent="tEtRJX8jaAbaCsFa3c67-19" vertex="1">
          <mxGeometry x="130" y="60" width="250" height="26" as="geometry" />
        </mxCell>
        <mxCell id="tEtRJX8jaAbaCsFa3c67-25" style="edgeStyle=none;curved=1;rounded=0;orthogonalLoop=1;jettySize=auto;html=1;fontSize=12;startSize=8;endSize=8;" parent="1" source="tEtRJX8jaAbaCsFa3c67-22" target="tEtRJX8jaAbaCsFa3c67-5" edge="1">
          <mxGeometry relative="1" as="geometry" />
        </mxCell>
        <mxCell id="tEtRJX8jaAbaCsFa3c67-22" value="" style="rounded=1;whiteSpace=wrap;html=1;" parent="1" vertex="1">
          <mxGeometry x="-1019" y="336" width="245" height="185" as="geometry" />
        </mxCell>
        <mxCell id="tEtRJX8jaAbaCsFa3c67-23" value="WEB" style="text;html=1;align=center;verticalAlign=middle;resizable=0;points=[];autosize=1;strokeColor=none;fillColor=none;fontSize=16;" parent="1" vertex="1">
          <mxGeometry x="-1016" y="301" width="54" height="31" as="geometry" />
        </mxCell>
        <mxCell id="9OoVXL_DygHniT45nHHC-1" value="" style="shape=image;verticalLabelPosition=bottom;labelBackgroundColor=default;verticalAlign=top;aspect=fixed;imageAspect=0;image=https://devtop.io/wp-content/uploads/2022/11/Next-JS.png;" vertex="1" parent="1">
          <mxGeometry x="-988" y="363" width="198" height="118.64" as="geometry" />
        </mxCell>
        <mxCell id="9OoVXL_DygHniT45nHHC-2" value="" style="shape=image;verticalLabelPosition=bottom;labelBackgroundColor=default;verticalAlign=top;aspect=fixed;imageAspect=0;image=https://www.stackery.io/assets/images/posts/redis-cache-cluster-support/featured.svg;" vertex="1" parent="1">
          <mxGeometry x="-253" y="11.999999999999986" width="151" height="129.74" as="geometry" />
        </mxCell>
        <mxCell id="9OoVXL_DygHniT45nHHC-4" value="HTTP" style="whiteSpace=wrap;html=1;fillColor=#dae8fc;strokeColor=#6c8ebf;" vertex="1" parent="1">
          <mxGeometry x="-741" y="386" width="66" height="30" as="geometry" />
        </mxCell>
        <mxCell id="9OoVXL_DygHniT45nHHC-7" value="" style="rounded=1;whiteSpace=wrap;html=1;" vertex="1" parent="1">
          <mxGeometry x="71" y="1019" width="270" height="185" as="geometry" />
        </mxCell>
        <mxCell id="9OoVXL_DygHniT45nHHC-8" value="" style="shape=image;verticalLabelPosition=bottom;labelBackgroundColor=default;verticalAlign=top;aspect=fixed;imageAspect=0;image=data:image/png,iVBORw0KGgoAAAANSUhEUgAAAOQAAADdCAMAAACc/C7aAAAAllBMVEX////gI07eADzeAD3eADrgHkveAD/gIEzfFUffE0bfDkTeADjfBUL98vT75ur//P387O/2yND41Nrqe4/ysr3ob4Xsipv0wMnxrLj3z9b+9vjumqn64OXtkaHzt8HvnqziOl7lVHDkSGfiNVrrgpXmW3bhK1TnZn7sjJ31xMzpdYrkTWvwp7P64eboaoLiOV3dAC3cACEAhcNcAAAOGUlEQVR4nO1daXeqOhQthAxAVMSh4jzbwXrv+/9/7gGKQggQJBDsuvvLe+1qe3NMcsZ9Tt7e/uEf/kEYvbnnuVPVq6gXJ11HCOjbVUf1SmpEb2NqPqBlLFQvpU58Ey0E3f7izZxifJUSku7tWy6ZdXN/5/XwDrSblOgmmqtb9sVRuyrZWMNIyt31G32kaUQf/yqdO6Q3ITV0Dr9xtoIvLPKueGEyMY3Oa7SV2+vWYmPUU7w0idhG51WzAw3b1aMvTdJXvTZpGJG7kHP/y/39S38z96oXJwuDSCrr5H81N7QYrPUvUbNfkT9wCL7awbiQGgSe6vVJwQbGjubF1JLA9q+QkuDQFfgM/v9CNRZYn6teYXV44H73ulsrJaMvpfn69/Lgn1Y0Cv5vYUOOjP4uH1/dYLq+NkXBdXSPvG0MYV5Ur7Ii/I20gn082zhLRk0DE9XLrARH1+Da/+/eyBbRh/HSwZfvjQcCzPRcGTX4rXqhVXCC5ti/j3a+jJqmv3JMomHgG4gjX63GgHeqV1oBCG78kBIVyehr4KXqpT4PZK1iyYHX2cpex/lxPc9z5/Ou0ymw40fQf3MKb2SAdnjqjrtc7U9raCEdAIQQAEDXkQXXp/F56WZkHE92N5YAyQM8NSsOC+dzdVkDA1CLQMjadAyhaVFgWJv9JF0RmPx13sZs5MGHoS615Z5PmoF86Yq3glCAtuN+Yq2d/7r3gLIAdKhGwvcTBVZq73IlNZG+XXiPmzqa+7ZS7FcPCiTsTTQktry0oOAwvMnp9EV3UkONByPTD4uW2UJWUEoH7vUPvS3E7mTj+rUzNswKIgbAxNidw/v5LqRd/ch61aSI0wUQ/PAL5KRg1Pc/MSE7qWlk1KCMM5QZ3pYGAcfZ9CKoedaNiegeBU+XILClrwVPPmhKxg/jKY2aL6fgz9nNuAOdP3K3sRz0RvIDfQHHpkaAJjKwy7xkUxNCuvXLOBRU9a8s5Eq1jA0c14lyGetXPMrPqpYyIdL39bMFMmoouabDp1wZvTbICLfJRW1sqYrINdTajivIV3JVR4h+5MnooTbIyIZaPV2DWJqjN1HsA0RgguY5SJ/gpzHOLzg1Byb9sQzcaOsrY9Wl4GxVuuRxsImsKzVGl1C6POtKXfI4KCPOLUtoVzWXP1uBUkxTMJJJ+IiehqsxCpxBe7YxfVrPUQ7GrJD6cS+2YD60GQDGv3nwDo0nq3o/s7XeKhH9U5lcYYyDh2l5/nrnfa/pVosOagjEVEIGsT0ICrnicPrD8dampB3GPw62BttJGG9xCkxnoemImm3bwitYYsRHMrsNBA/szLbat4ER2APZYSgxRKhCO22NY8MFS1ZKFcIMASZ3V22usQiI6XJyU+40q3w56OBWy0hY7cnJudNZkZDf7bKJDDBhosYBr+BkFOieIeD8UnugM1mOd27sV1DY61UpGdcPm7EeXcBfrpEbjpxbrVhtxtXpZRHx8pmUIqwvVcAGS49cZ+qPPDPy05b0BgdQZxf+nV3Iz6tEi7G+lMDUmJzjdJtHVmCjsRj2UkgONQDrFybo/4G5ti4ndzdqqZEkKYprv4gclTrcd3y3Uu8QY8QmjseFefzsrRSktjUKYpxYq+dl9408YGRVR1byWDlyAKk9YIscnZEQ6ySTFNtpkwnBkOrbM3tQOx+GoOIwskpAs3YkVyGxkEFOk1T72XxgCBsAM7N39tAGSwkv40k/3V/nTL5L5Q2z+aKXFuwlPg6GjLJx3sc7m5bTi2wxIYZFGyrJxAJ0fRrPJsvlZLUYfGsGLc83hX8yhXxbtiRdHrLyfVgmKUX7foCNPhNHY9TuyFkYZJAt5NvbZxvUT3VgK6/K1Sp7WQEot0Fv20L/7gnktwK1OLAsBTu3KotbndASBs2tVy4Lmm5fBAWta6e2JgnKgeae1152KuyVgPKZhb12F7cEQYrG+IwzZlO8EopLXPNNm6uxYhCYvTBfHAMpOS2tkJgm8ZHud20XcuKtB4I5QPjRXARNinSqrTeXfYDB12Z9tHSh9lc1EGpdCxw8enPYCUDf44nXZfIuU8c777cAtI4LEwATASH/YA1M3DBdYI7yKmI993xCqGorpXyI9B3sMNlcezcxKabneWMNtMy+5nt2V6yh2bn666nKGR/uHpXMxdSLYGpKEb7/ulcaojgDsTdcg/aIKTLaZhHsny+kyGF9oL+pobfySZiCa/aFLDszzvtui5iiHU8TapzLyeijv25HewUVHFLU/++jtIw+hlYb4jXRdv3ek4NHp6MW9AOx3UDy0YfKN7OByWG9i/JMtVW7kC1ofWqkXX8O1RqTZtr1p2ulFxM10Mke4KQyXyRqKCtjoFD9CCUHpGCvTkqrkMksDR/KpCxMS0rEXhUbIb8WKxkjRdoHNjrd96DGkjQ8AG6nxCtoWEhHCY+/XCdedfRVkBEan1c4VqB8mh/KqIBy0fyk1G7zPkH9qYEUzo37BI06Azc0fmBFcuiyMW+ahtmgg/5A090nSub6Tht2CRoLmhNouLeviUF+HDQ7vcBQ81xMs1tpK5Gx2a0U6FavB7MGW4mUzb9nxzzUCVPZ+6sNNjGKMCPqgdvcVjYy75aPY2OqJ5/yWiuyVI902aUN7fM1yeRrbcL1ZSI6vumHf16x6IxwYWQ335XEdA8ogRhDQg3R4I0/0sA6yzYusjzXz/hceyRIauKfV8uRHVPrcpy6WbKUbIudWJeXB/EvkGQKoiR/Z8akGUVVNk9IP4jfyE0cyEkLvLOBvuhjdLxWeP8C7eW6CUjGs8BTlnaFae7Pd5eftw+Bp2KMDvfbFaDLsJKpXEaByt4BZGir4F/mXMpgLoncNjEp3nna00Y8vXPXcF7w85iavj/ZS+vRIOUk+vhLFpIHS0p+J3W4+MT2WUSl2UQPhQ94ljKYiORVsiH4O6m4REf15SI1LYTv829vGte7a2J0SU+cC6focE2LMMgg8daRlDJIL1Wl4pJmOn9vOi6WWAaT1CmwzpWFtM7L+HGXEmbNUyviCnm+Tbdaxn/cmrBChs5JNSGRl1iSIUHGt37qAnFdxR0NOcHJhCtkDeX1OruV7iToTGOHS04VZJlShbwSkgeumfpD8hIemV+9jt5Pf24lEDhxsfOROa6mopAaTXMSDzDMs6zyl3/jpXL+pDiCj/ihXiU9TMUxaumtdI2rASwo9BhXKv+kipCBonkobUlFEJ6W0FlOvq9SrVUhXSAiGC+quHW2E4vhsCQ2b5e3ciNZKgtUqrVcFrHRo/sj+nAhD2FcdT8K0kp23I8dxOev9YJsOS4cFU8i2lSVYWRhXPUZ/VPS3hs9cJdEyOM2jEIPpDASvvtfVXpvw7gqukLSkjtZo8MwhbOrJzcUY+7ch147VXyBMPsYeQNS3NYQ86wkMbZ0fNgvPsTUyIM0VcVMXr0J5/qxytvI3CQxDvqehVaHH/FZlVLQdajAzeURTDUJQcqou9hw2iopnut7jb3wcFkyyzyib3/mgT6STb0KrkDkqYZtu6bU4sCgcuIpPhHbq6B3opFYwRVBcsn1TtX6FIw/ZSL6vC8H9zcLfMOcN+jsKYyr3UpoxlPcu+etJI3cSTMKaCSiV2lmBKbxNO28Ah8WRQ4O1Uz5lMF+Bd0DaSLf/vH8aX0EyAhbNbSgPc/UhSSZbq8wtcqOhoD2DFBLAX3z5AaQY7Lk9Pm8u/PIIjt2TUzl59rqrC1zrPjuPhcmUzN5ZDp+/kr0deLofT9xYnU2D12CJGp+jBNCxhKsXn39Zx9lfQJopBZzEf4bmDL591jKqq6W0J/huMRJC0H/pBZTwn6A4VvCB6m7YWD6/mUZZR81IjonNSHum/uRWbJkYkt8YpOHPindmA3tE+dMeeL+oeEkQ7IG+gUmpBQVGYIt1+kSb+QCZyYVJC8JkIMVLpqi/xDR2PIL3Cth/UwOTKWJCg6+qIrl1hYYkYUt+5AxDUY8txO+Zxd3G+CO/ydrQHe1BbmvxkFT380ySTXimUg7OAlxV0B6yJELZzki/Jln0KTGepHDfRGfMn9NI8RSS1aDLcs3uLOtbqBw5HUIEgy6s7fj91xilCvs65CQDxhLEqpiXzvecjb+Oh02m81p8DHpF/ogHWFOOr4+xxwLyZo9rBUg3r6lX4/8IyNPlZGvS+IgnEC55S4fxTSJbNZ6MRC2kNGkrrtuxVzWUAvBDlkgmYoWRZO67kUhWwZzrgGME14ApGDkZkQ0NPJQ78w0oKJp8AnEx7tgywieevngH196j7EjPWU1OgrieTweYYGWcZwFxob/EqFG7xJFcack3kPd6NxyQ5hQfX0raHb5I/1irO9bAgFqTcy+qgw3mO8bCAhHw8hh6GncCwkevptz9Y6SWenWYmGbFjJ2+0ncp+W/ZGrETP6VYYt1dY074uge7fXg7DF2bsTzC3D84clOqKmwovbWkvjpciqI3MFEEMVj0HGwkVgOoUwJFtwOg2P88oVU6RfZRy5WPOMBksZwYP4+GbGdJLEFFDBovYLO4YNtoglgHRl5fI+PrRK9EhZpGbHB5lP7hkY36vohq+IrrXNMK8WCPkKj+YyONGxSTjk0vlJbtkC6sgblyuik6puY7tKh4s/fY801jxrhptKYJuVN6z6+SGjFw5mtGBF9zwswFq97VN/Y5wOJ/cW1EdPXtRxzLXEdsal/vUQIVQarxHB/TOn4dfcrA90ENZ2A4+R1DX0WZrE3rSCiXyXfeHgFeLu7A0AoOC1/3ya+OZfbbYQWoKP3XyjhWy98Nxv6O0g3s9cNDnOxQjpFuvFnP5z/xi30MZ1Zu+BJ7V9nDuPovEgh6kXxP5GM94n939jTAAAAAElFTkSuQmCC;" vertex="1" parent="1">
          <mxGeometry x="132" y="1055" width="127.93" height="124" as="geometry" />
        </mxCell>
        <mxCell id="9OoVXL_DygHniT45nHHC-9" value="PAYMENT-MS" style="text;html=1;align=center;verticalAlign=middle;resizable=0;points=[];autosize=1;strokeColor=none;fillColor=none;fontSize=16;" vertex="1" parent="1">
          <mxGeometry x="74" y="988" width="121" height="31" as="geometry" />
        </mxCell>
        <mxCell id="9OoVXL_DygHniT45nHHC-17" style="edgeStyle=entityRelationEdgeStyle;rounded=0;orthogonalLoop=1;jettySize=auto;html=1;fontSize=12;startSize=8;endSize=8;dashed=1;dashPattern=1 4;" edge="1" parent="1" source="9OoVXL_DygHniT45nHHC-11" target="9OoVXL_DygHniT45nHHC-7">
          <mxGeometry relative="1" as="geometry" />
        </mxCell>
        <mxCell id="9OoVXL_DygHniT45nHHC-11" value="" style="shape=image;verticalLabelPosition=bottom;labelBackgroundColor=default;verticalAlign=top;aspect=fixed;imageAspect=0;image=https://upload.wikimedia.org/wikipedia/commons/thumb/b/ba/Stripe_Logo%2C_revised_2016.svg/320px-Stripe_Logo%2C_revised_2016.svg.png;" vertex="1" parent="1">
          <mxGeometry x="-1529.996666666666" y="1363.0033333333336" width="320" height="152" as="geometry" />
        </mxCell>
        <mxCell id="9OoVXL_DygHniT45nHHC-13" value="&lt;font style=&quot;font-size: 36px;&quot;&gt;WebHook&lt;/font&gt;" style="text;html=1;align=center;verticalAlign=middle;resizable=0;points=[];autosize=1;strokeColor=none;fillColor=none;fontSize=16;" vertex="1" parent="1">
          <mxGeometry x="-1467" y="1329" width="175" height="55" as="geometry" />
        </mxCell>
        <mxCell id="9OoVXL_DygHniT45nHHC-16" style="edgeStyle=none;curved=1;rounded=0;orthogonalLoop=1;jettySize=auto;html=1;fontSize=12;startSize=8;endSize=8;dashed=1;dashPattern=1 1;" edge="1" parent="1" source="9OoVXL_DygHniT45nHHC-14" target="9OoVXL_DygHniT45nHHC-13">
          <mxGeometry relative="1" as="geometry" />
        </mxCell>
        <mxCell id="9OoVXL_DygHniT45nHHC-14" value="" style="shape=image;verticalLabelPosition=bottom;labelBackgroundColor=default;verticalAlign=top;aspect=fixed;imageAspect=0;image=data:image/png,iVBORw0KGgoAAAANSUhEUgAAAVYAAAEZCAYAAADMoQ06AAABWGlDQ1BJQ0MgUHJvZmlsZQAAKJF1kD1IQmEUhh9LKUIwoqGhwUGaTEwdWtWhggazop/tejUN/LlcjSgaaxeacgqL1raKplYhaAgKQoKaGtoiF5PbuVqpRefj4314eTkcXujpVzQtbQUy2YIenQo5l1dWnX0v2LDgYAKXoua1YCQyKxG+tXtqd5KVuR03d02fvt5HLyul0lO18rxdP/mb75qBeCKvin7I96iaXgCLWziyWdBM3hEe1uUo4aLJyRYfmxxr8UUzsxANC18LD6opJS5cFXbHOvxkB2fSG+rXDeb19kR2cV50SP4oS/gJ4BWdkw688vgnH2jmw+TQ2EJnnSQpCjgJiqORJiE8QxYVD25hn2zzETB7/t1f28uVYfIdeottL3YA53sw8tD2XIfg2IWzG03RlZ9WLTVrfs3va7E9BLZHw3gbg759aBQNo142jMaR7JeOrrKfl55nE0w27xMAAABWZVhJZk1NACoAAAAIAAGHaQAEAAAAAQAAABoAAAAAAAOShgAHAAAAEgAAAESgAgAEAAAAAQAAAVagAwAEAAAAAQAAARkAAAAAQVNDSUkAAABTY3JlZW5zaG90kNklvwAAAdZpVFh0WE1MOmNvbS5hZG9iZS54bXAAAAAAADx4OnhtcG1ldGEgeG1sbnM6eD0iYWRvYmU6bnM6bWV0YS8iIHg6eG1wdGs9IlhNUCBDb3JlIDYuMC4wIj4KICAgPHJkZjpSREYgeG1sbnM6cmRmPSJodHRwOi8vd3d3LnczLm9yZy8xOTk5LzAyLzIyLXJkZi1zeW50YXgtbnMjIj4KICAgICAgPHJkZjpEZXNjcmlwdGlvbiByZGY6YWJvdXQ9IiIKICAgICAgICAgICAgeG1sbnM6ZXhpZj0iaHR0cDovL25zLmFkb2JlLmNvbS9leGlmLzEuMC8iPgogICAgICAgICA8ZXhpZjpQaXhlbFlEaW1lbnNpb24+MjgxPC9leGlmOlBpeGVsWURpbWVuc2lvbj4KICAgICAgICAgPGV4aWY6UGl4ZWxYRGltZW5zaW9uPjM0MjwvZXhpZjpQaXhlbFhEaW1lbnNpb24+CiAgICAgICAgIDxleGlmOlVzZXJDb21tZW50PlNjcmVlbnNob3Q8L2V4aWY6VXNlckNvbW1lbnQ+CiAgICAgIDwvcmRmOkRlc2NyaXB0aW9uPgogICA8L3JkZjpSREY+CjwveDp4bXBtZXRhPgpbV+klAABAAElEQVR4Ae29eZBd1XX/u3pUa0azEAgkJiGQQMLIYEYbASYOduwY4zz7l+kllVScOKkXJ3+kkvwRv6QqTpVTmX7+JU7iOImp5FVMDARsbGxsRptZgAAhJKF5ltDYUs9vfdbpdfvo6nb37e57zz23e23p9jlnj2uvvfd3r7321NDT09PX2yvS1NQofSLS3d0nLS0N0sC72mMa+eg3Xeo+Sd3DjJ0Dfcpwfm4alK38amX+1//6Rbnvvm/I9OlT5Tvf+a7ceOMHpKcnQ2r6ecEDNjQ1iby9caN89KM/I++8847a9MqUydPle489Kjfe8AGrrxlSV5dJpetXXWagbohOwLKrq0smTZokzUkV7pOTJ9u1kSc1u7OjIXmnlatVgyJrg74TqLGhUTpPJ6Gkob8l1CTzCW01SboSiZ4BoP7Rz88asbWpqVmam1sV0Fq0g+3ROnFKc1ojYjTl3t4+Oe+88+WLf/L/ym99/nNKU7d88Yt/KqtXr5KT7dTXShTEeI8jmJRdCffJ5MmTDTsbFEz7du7YJf/P7/6enKuVeOfO3TJ3zhzZuWunXHDBBTJzxkzZvGWzVeolFy6RRhUjNr39NtVe0bVfpM2O8lRKAKsDUsq6Dl7ppPghnpIDOi5MnwJJL2ihP+/kzCGDP719vbJt6zbZt3+fTJkyRZZdtkzLulFaW1ozSL10EvCgobHR+LF9+3bp7OqUK664Qro6u6Spudk6+tIhw9Y5kHU98nRH/6QjqAauaD2y1jZ6ygYPCb0J3V/60pfk8ssvl2YYf+z4cdmxY6dKAaflpZdelmve9z557dVXZc7sOfLuu++aaMtzxowZcvDAQdm+bZts3bqlP7LBk6uui0GSJpGAUnXTGt+xGycV5BsVxACyY0dPyIsvviwzZ86U9957LwH7nLBg5849OaGkPsgwPV99kJpQaaPgtJRdTvtO+x8ssxrPmAWxM2lRMUhHVT0qBPWYKrW5WdvOsWMmNDUjOc2YPl2uu+46+daDD5lE2qkSwWwF1b379st7hw/LHJVgmxqbZc/uvbJ7zx7pOH1KFp17nuagnAwNltFK2NMLhRkrB6wU9U+vKttVVtauqkHOmXWOLD5/sXasW6Rdh93j3dRUq1VF5tabxNp7BrBalz8Md6i95eLQGPGibyA8fO1UnWhHB3rRbqOhpaUpGYnql+pYRY6fOC4vvPCiXH31annl5VfkjfVvyCkFzy3vblVAVSmmYZNJLRs2vG1DsEmtOjxUlK65SWW05rSMAwLSjfDQoUOyXusBOqNEYTEOMjhIFgaayyAe6tg6Xab1kQ2VAwu9nJaMtnG0ZjqFru9nSoyJKnIkwFoUvlw87mdcHzSoQRgFF1tbm6WtbbJi5XG1VboRTBRwMaYKYEJqi+pRG3TSAn1f+ykmLXRWVgPbSFvpoXFNamvT8H06U6ygOgL9KoS0NLdIV3eXrjhosbiJMSFihLnrD10grPAdL5XmwPRJtdOvVjovxfE19le7pKkUu46f7wZt2/VkwIRuG15DNbQDYs2KS7pE5CxgHSl2qH+Nn1Ck4yBISsMZQJWxnIY0rw2qBmBOpK+nz+jr6e08Iz6TWPHJLPCGDRv0rclmhY0ATRzjBJjkAshaj5IUGG4Apz/NP4knQS18q0q4UyZPsckQLIjHw5iHUf+pr0oz6mxGwIpzgCZCNbZn/3vFE8lBhD4xmgNSyiKhR/HkyNGjaC9VAmyUHsWl0z0KWmfNZ3nb9+dw0Q9EAPa4Sb+7Xakn+tQEWHsN/1o02QYd+iOUNutqmt6+LpNYPWwBWFnawkwrCfXoshaAEmy0igch/UCJfSMR9XaBvRpxApLMZuPXnxqRpcHfJu1tAFfcUPY2NTcZkCM6IxUTpwW2EGX+sd6rn6gyg4S3EXKAsu0PQtlR1nCcCREmunzoQ53hm0L0srRJk/46QEVJV2ArNYq8P3KLS/0QBrcmFrBSJ9Qkj+Sd9Bjx2IjJXEf/h6SJ1UedSQqjjy+vIRuKpbwqE0pZUgdYy8lKE2oQ5cZSzVIGv5Q39YMRLXWsVXHoVGenee/SxfQ9unZel9snk6vqTnyF+qbvhE3qnWJXb7c0NWh8/XSAN9TLpO4m780av+GO1oAG/FqciktIxVoxWHXiHVJPTwLI1A/SAGDNm+Jls66asTwmlTShoT+TBWDt/7ZH0mBEZp4zUxYuWCBHdabr4IEDVhHxcN5550nbpBZdGbDVmIHDJB02nnvuudLZ0Sn79++3yu+NCSJ7YIZmYOqUqTJt2jTp7umWw4cODzAlTUC854YD1JlOreSUL53jcV1BQqXVKkgdtHJeoHUEnSzrTKm0vVoZqfitCoKnVK3E+lgM4IxpUT9z5s6VvToRCkg2qz9AFdA8ffq0dez4o/6QloGghiVutcSpogaqKh9rRUmsj8j6mcjqoclTJuskd4eBYJuqEFldQj0qNkDVrFmzrGwPv3dYuruYCEqKmepClNSByy+91OrYwUMH1Q5w7TEZsq1lcoI1ijEzps9QnOmRU+2npLO7Qzcytclly65QDFsoTz3zhHR1KJCqP5YTzpkz2+rrdJ24P3HipC0xPXHyhE7WvydHuo4Y2JM+Aid4CH61Kubpw9K2HQD9+TVh0urlQC0qCawgMw3j0ksu0dUBs62yn9YGcuLECZk3b75cfNFF1sgmT5kmL7/0kjWASy+9SBYtWmT269evlz3aaNw0NDSbKN/Y0qygOsOAl8xNn3GOLU9IFNPuO5654YDWA8D02mvfZ5WQjvN1LdupWnYs0G9TqQQgXLVqlbz22mtyzjmztAFp41CAxay9/XZ54FsP6ARYm3XGixcvljfffNM6VqSUBfPny1Ed9jFSovG9+cYbconWuTadMDupdW3q1Kkq6XTLlKlTbLi1UXdhdXR0VIQ9xWDK93BmoNkM53Niu5v0qCxoP9UuR48clQULF+huvunWKafBlY50ztw5cuS9I9q5NqvghQQI73T005d03agoL774MgXDyYovK+WwrlIifjr4uXPnK5YcMFDctWuXCX6zZ81XUJ+i+LNbEblHPvaxu23+6FP3fEoB96Q88u1HFNv6tO7Nk8UXLDbJmrDU8wWN8+QnB/YpyDeqn0RCbdC5pLa2Fpkxc5YJmPg7cuSIYl6TAnsy6knG9ko1gfpNP7Bav5D0Djp0MGWxemib1KYSabcFQFogQ62tLVbxO7WCN2vjaNZJKSImQXgCsrukShokRuxecUH/xDCh1WzSicfd7xCPHHEAMAUEkSxPnjwp77vmGlvfSsXu0NHJG2++Ieedf7716mweOe+8RTbsY4kW5d6sap/ZulxvuS7sp84wWgFE58yZKx2dHbJs2TJ7P3jwgGzevFkuuPBCeUvB96qrrtK606RgPVNXrZyQdk173ry5ut56R0W4U6iPSiR0lmU8UFme8+EpUa5kRIvyp7GpQTp0I8eMlpkq4bXphPhxxQ3FEgXG41qGhg/9ADR95gydUe+w0Qsrk7p6TitYURpghg7RNaCrD0+cOGZSMECMZDl/4Xytkwp62mkDdOdfeL7s27dPzpl9jm0kOW/xeQqu221109Zt78rtt98hDz70oOKZSs2djXJa616rCgadim9NCvAdqqog5RYdmZ1SYcFHRhQ5323TujXNhbJ37x7NE6Bq01cJvUi1qvZo0ry7GQBWBdQGli+pSEvPAThu3rRFd2MtlIM6zIN4QHGvEj9DVQBTdEhPQ+jun+lnfSsGRhw8eNCeDP2dQLgLU5E4lixZoo2q00R2ABlxewB6B4izCONPlTgAz4c3SAiXX75ch2EHZb1KlPPnzZNZOoo5okO7ZEg1R37wgx/o5ORkA1zUQAwF+TEZipR6Wst8507dgKIASUeLlEF9WrNmjSCFvv766xYXO/2oH9dee63sUP9zNJ0XXnzR6h16/0pvYy2PAwM8qsea6dLjQC6q+0a7nqqdJ2XFaKZF2zfSKJuQTFrVobgbsAL6UAHQeRqgMroF4rRw8NmqIEbdufrqq00KRYVEGuwGZTR9+PBRU0ci3BHXMQVdMAXs2b//oLy07iW5bPly+R+VVDdt2aKCsErGOun03vFj8vRPfmwdPWv1kV7bdVt/u9JMZ9SHfljj6FUidMZJ9h/Yr78DVn8RNPpUktVxfX9WlNiiytSgYNm38e3N8oEP3KoSpC6n0sg6NHLTlZFxjQBANDFXAzcqY0wKVX9Iswz7YIBLqTyxQ6/GO0xl3SvKbAiCmSiOcdNXazToSzy8pdNPblkPjcciKsdzmX7hkdEDgcOYEfsdJj53tnjtA+4OT0fitXxeUAn5DWfwQucJP9B1UT7oQ5MyThT/PvQ3HahGyJNGxFCPFJB2ee/VJ+VPpScu6gWNBHs31BGkXUCbYSA6MdyJJ6ln1B0+0LRlYyw5TcqXaGWTan2mQlmzLJP2joDGXArtHTUihnK3iU19Z+TCqOSUqgzAkmZd7snE+PFjJ7T+JOokRkmOPyzDam1VKVPrDIdG4bdHhTLb3qyjJybFvV50q2TKuRc9rCiwtbCKS0ob9Qvdv9UnrUPQi2HiyuaC9BsBEpoxpM2yKmpfsnSNp2Jgk+pcdeVoqy4P6FVJm+VWbBB46KGHbLNVSR0rQ7pOFY1B/i5ljFVgbRBESBIkbI1S7YxJau8Gd5uMoEWqb2tM/f7JFJoTNwSDsSzxckNGyjE0TgMHPKfSLxV2JH4NQJR0zdmw8dK0Sdp4MQwNcAg6AJbhzNl+sRncjCR/7peyKNeg/ik2NBw3vJOrNJVsLHCDygfjldXtqeiok7S2u5U9p6k+jrgKNGpDqKWBlmRpFrkcvvxqSWut025WcFGE0JFHshYeelgPkNjzpaa/vLt71EV/TarTbFIQ1BaibYn2hDSogKfvLO1s1gJgBr5Z3xt1YxL+aad4ttE34K12FqA/PEugQKvmRupOUmYK2/aOTY+GwTRpPNZ+mf3XJJuIU+0bFExJQ2XTM5bPGj6ofQNDf42WzpY2DUCjm3WT1HhqjgnAKiFYtBDCD3EY+pFu8MOfhBBDciwtrFnrKx8I8g7ChOs1nQc6iE7Va4QJDtQbB6yKa1XXZl9vpNcZvUh/OkJGijTM6ZOpqkNFVWhD837J04CwH3j6VCoeMAk+sVurH7iSp3tIQEy/EinXrA3DHMRwGqyM8cOvP71+0OWLn8q7GnQgbEHHykECzKIlhic/sFszZRUKwCTi/i8Vyy0ioylJ0EBYfeBnAJB1J0VXj4Kq6i7oFcIEB+qMA9Ru+w20mzrLQb2Qq5KrjmBbdIQEqxnyo1aC9+jYwR/e3VhxpC3coVpPABuj4MbKgqQ60N2qhK0qqzOAlQ889fZ1q45girx/zXX9kmWWFDu9SZroOsLUGQeslvV3ulqnxmMJWrNOWlOdFU69kEut8ZrTD2L9Nm5bKifUuvKKhVjK85nQMbhfVgAgPKJXfemVF3WC/4DGPaDSak4moiC3Vxf4z5dv3PcvBYUuttmahH0QHKZeOTCOy9DaWVTOWtTMobg+OPxVkVIliIl81ul+5rOf0RUDezWxFLCSNFLrVVettEmpqboYO0xwIDgQHAgODM8Bjg1khUKxMRuAlS1nYYIDeeGAVknt8HUcpWp5WyhSE7EkL9wIOuqNA42AKj/2e4cJDuSJAwCrG3tNfbt9PIMDteKAY2ep9G1VAGuzbG1qTNqX4lHYZcgBx06eNikBuuqPiaNSQ64MSYukggNlc8BUAcni1lad5TpbV1B2TOExOFABDgCmLLgu/sdxcIUJ4wqkE1EEB6rJAd2Ik6y/evfdd5M9ty4yVDPViDs4MCgHtAJyO0X/jx04LA4PExyoJw6YiAq4ct4qkmssdaqn4gtagwPBgTxyIMb+eSyVoCk4EByoaw4EsNZ18QXxwYHgQB450H9WQB5JC5qCA9XnAFMK6V09nKvEeoSQOKrP+0qkUEr7XrrsKOV0SVci9cHjCGAdnDfhMgE4AIzSOJNml5xfb83PLuHLriFOAFZXPotaPKVBtD+p4l6z8hQMGuOQdA0aKhyCA+OIA4mMyoXLusjLdyXELG7dl7CVq/7xIs0yQyGxZsntSGtEHCjsbNHGceaBcSOKZkjPSBb8gNVufgqoSLB6MqgmmsixQ0YQjjXjQCk1AOufMXoBi5Yfh1FzYwW3ClODshuB1ARYaTAs8XLjDWjE17J4BFV4JsVT2YgHclzZeCO20XOAcqaBdmqj29V1Qja9d0DBdZgh5uiTi5AV5gB3UhUbyrNZj5OepterXDZ7gcxs0mti9J9eX1rstWrfmQOrD7XYQutACsimgXao3Hr4kfgv5fcMcOeQbzktfT2nCn0atyB47wc9Z5YfX/3Qyzijv5MYoI3hh3Ye3O8jentt03SLQY/HJaowOeMA5XxS4fX7G1+TDccPSJ+esTno/VZnVoSK5KSU5JWOOF1r0n7NnurX79lqpH+YHTZmW/SVxMgBzdRzjrsDdgp+B4JYuMKfVNwJHdqGC479L34YdNo+FS5tPdb3UmSyay8B1j6Z2dMgbctWy5Vzzh9rUiMOX1VgHQCaMznroMaNnAAswMdlc4U7jjQbxWE9DDns0vu48I8hLG787KI7AC1l56Dq4R3Q+QYQaVSN0iE9J3fIqcObpVlvRiAerpLxOC0h/YN9j15wx71RNLwEeHVnkKfHPTla0/Qz2ZbZqJfqNc+UGYtu0GrLWY0UObw4kx9qEaaYA5RjBnyiJChH7uY80Nwtx9q0M9RLlhqt/M8kysq7CkVXSupKp5zct5XAnoFJPw3UQX5pkoiLWmb+9C9de1JP1U4tmZOjg8euV28M4Y3weu2n/tUv9WRtw+ySuBOoUlcqNr702WX3T5F+MuFHuiY42FFk5m3gj7ol9AxYVfONHDX36uC/q0+O6y0ESKvWUSbkVzPpQtxVA1YKhzvg5+p1tdy4ybcDHqlz7cJ//Md/yLZt28xt9erV8rGPfcwI84Ll+corr8ju3bvlxhtv1Dvmz7E4AGC7HbYf0Pj2axw8Ha50YCfZq6++qneB75WVK1cK1yvbfTr92bedZpylqLcndJ3cK+2HN8qhPTtkxuSpep1Ml10LwUV5R48elel6wR1XQS9YsNAuIOvpv2yxR7dcHj92zGKcOnWqXrm7z67S3avPlikzZMqCK7WYqep0BBmWbH8e4zE8B2j0/FTAseuObUFAv106tPkD5cowlHSZXocFHaenuPZACTULqdH9GHXaLsDAPrXUJqTv+CC0+sZe6yyX9LXQeeBRbWzrMDFZuARcaa/48ws+0VPa5XtOscVF3IkxUDcEc5vkWcLqTA+j/CLPpUtD842bCkIqDY0y9rEFqxqwbtmyxYAVAES65FhCl0hdBQDQXXXVVQZ2AGNamqRQuU/8rbfekhUrVsgbeqc9kuqsWbMM4Dg/Fv8AN7fJAtAXX3yx+QdEL7/8cvP/4x//WK6//nr50Y9+JMuWLZO3337bAJYwnV3dcsstNyoHu7VH01tptQw2v7lell9yqbz95lsW3w5Nh3SXaXxb3npDzr9wsezVcxU2KV1cxTtv/jzTyZ3Qu9EB8zkLF8oLTz6h96ofkyXLV8qshcs1fqq//vpUatUCD1MfHPDRzhnUglRlGIq53KIGeNKxejh/4gY8cPsT/7oBRP3HpAxvtKsuJEUNQBgDRJ6ACr2FRsB1R4ThKufeRtUoaxxyWqfrdFR1Wg9rnqK36jZy5anmj5uTsaON9KrgQXp0EsRh0p/GPQlK1F+nXo1O7ba08aPhjQbs+g30V8NAk3cog8UPLbUwVYPzmTNnmqQ6e/Zsk/YAUxti9w8VKHxA97zzzpN58+bJ6dOnkwqh9q4eQFWAlAqwIjmuX79etm7dKoD2RRddZOHffPNNefHFF+WjH/2ogSpxbty40e73fvDBBw3sLrnkEov73//93+XQoUMG5M8++6xKpTpMoDfXysUQf7LeCDl5SpvMmD5T/TdL66TJsmDhIjmq95x3a+2ZOm2GTGubrBW5RVrbpiidqiBXu86T7Up/p94x3iYH9+zT+9KnKr16t7p2KMSbXMyoTw4WCVO3HHDAKOdJwyrHnzf8tF9nkNsRV4tWnVMHDsvRXXtkutbXNtVlTtF62KzgYqMr9cN7q4Jdk4Jni7q39DTKfvXfqJd4tmmY9iPHpbVB5U51b9Prpp///jPywg+fk3deektm6zzAOdKmzykyQ2Hz/q/dJ31HTsmUhjZp0cmf1uZJatsi05snyznqp3PfUTmwaatMVfsBiRjYTzoBp92fnqeJ8hyQWOFABQ2SJABJr8cd8wCpD9NJBpBFkn3yySctVYASO4DRgfX88883SRWVAeCKtIo7QAlgL1682MB7zpw58sADD5j0y7CftNauXWs9+cMPPyyPPPKIhVm+fLlwiteqVatMCkWqtbGSSqyKhHL6VIOsvulmmaR3ka++5WZ16lUaW+WaeXNlpgL8FXNnS4dKB/MuWiqztEPQZBS4m2Tqwvl673mTgm2b3oFzRDuKufLeof3SoxWypxkVAPpVfjSRMHnlAJIVzYBnSaMO5ZYgcQwaT4nI03pWHzp7N8z3FAXCp558Rs6dv0DeWfeGXKmjspOnFfhURTV3wXy9zO6wnKPt48jB96ymtatQMqm1TU7tPSSvbnxXZsyYISdOnFBBYJrMW7JQ5p63SFpPN2hdb5MpvW3yzjPrZJr6eeXlF+XKK5bLnJ426d59VL7/9HPygY99WCFVBZ6jJ+TtDa9LnwoSx44fk07V0faqyDh36QU6atO5Bs1XA5NXuRAgjJp+TitNphMpwfgqWQ0Aq7FlJFVheIqQRDEAnRuAkWE/etebb765AKIOqkipDKkx+EESZSjepqDFEB9wZuiDf4CXuHlfs2aNSbXEnZ4Iu/vuu01CBeDxC0Dzfscdd1i4hK7JMumci0W1qtq7d+jQRyXRuQOsaVNPzDa2afhOCmi66pp4Yq/jkSnz7dX+zNSLGDoUkKfNWSEdnaoGmcrNDAGqAxzK51tZNV+rsQp7mRpaDrUHabShR4fxp7WW6vvpw0fl3Y3vyDQF1s7FR2XbwX2y9kO3ya4de+XQ7r161dIRWaCd/3vHj8tk1f1Pa27TtnZKJc42efGJ52XpvfdqbW+SnqPHpefYKTl86rQ8t2+33HX7bbLjnc0yv7FVXnjscbn6w7eqVKojLz0Pd/uOrSoB75SWdm1j0yfLXT99l/z39x6V685TNV+rthclFs3D2d2PdxG4VdqU6uq8kHhCkP8qnfbg8Q2gh/lxggYPMBKXNKB6OEAT8Dx58qQBnIMo4Ik9AApQusHd/fhKAHdLfyMVYwifNvhJ+yt2N799mmbLQpmhkia60D5dGdCgUmt5ZrBK0yuTFXwbGnS5lVbgZJBUXozhK0MO9Lc9Hlb7K9sERpURpFeXWokAkrq1A+9paZaFFy3RkdtseenZ5/T85B5ZqDr9Z555Vlbc8H4FNZUe58+XHZvflXOZqEU/qnrTZpVS21XtpboqmX3uQunatFF6VLLsRGfarFsjNO6u3g75wG03yYWXXSKv6oTxe0cPS2Nbi7y14Q2Zc/kSjbtXll9zlbQpDd3vHZODRw7Lffd/U25Y+0EdqbUmOl56HTDsLEN7HqydnOV5BBYDODF0IIjKtmCLgHVo8sbqCtAibSIxAqRIr+hWXQoF9ADBUoA81rSHDK90aa1T3iuY6jszocNqxQsRDlaZtHEUKlnhpRAqXvLHASZCKKlym2s1c+CqAa857QpMK2+6XubMm68jsD65cPVKaVQga1FV1CldHjZPJ1WPdndIy9xZcvnN10ubSrKnOjpldqdKuFMnywm9pnmOCh+906bI1TddJ8e622X5datMiLFJMVXbtc0+R4419ckVt31AenTkd66q2rbt36PSao90KdIf6+6UBZdfovrePll4ql0ubD8p01UY6QK0lNBsoWuk6Tknq1lqA3FnCqyeLBKorxBgUsqB1J/uL/OnAaym6s9yxn1UKB36FxvykuiUGciFqSsODIEQ1aqjXuXSfAIK6OPpoLsU3KbNm6UbGXQ0pUA67fx5Ngo6feKk/NSnPyFTZ800lRdS6qQFs0x6bZ3aKq1ah7u1p5g9fYGpEADBWQvnSJcuMZx57hxb0UKapKUzDdKudXnGRYuwktM64pq39DyTMWzBgII7u9J6TenbJlOnTpJTSg/GOyPvEMyy/w9xF9pU2mHM7/3jQOURKx7cVKuMPP5ynjUBVggbAB5jezm0ZuBnoHCsNpWq7cVUaM23hdHF9vqdhwIuQVZYleBAUgvTdTH9XiJABlZ011YFDTgU0Iwklj7pRJIiGbDSNmOqjrUa5JRKkz2mesI+keaof7oIIAmncQCBxEEtRzpnmgCgBLw9TKIjTRLGzgGTpy3yUkvb8qsRWTz6h7iIjEetTD/E9iePCk5tjKDaUFUzYIUD+QOe0RTCaMLUqvpFuoNxAC34JEWVSbpjp9dAA9goHolQ1lUob40SkEsbS13tSU1H58n60/6kATnd+2LGdoipVKqCakKZhdGuXsMkwMJ614F4HChNEtYYAADeScNBl4BIgNiRJO5m9EO1EAqkuqRLCcYaMIdLHq9ZJr5TfwE5YsrGsBeMCb5JmqFmlcCTLoC0s6Mhc2BNMzi9/Coblo8glezKYARETSCvNO4SKpaKc0DLmX3yOn0pl06eJQ2ndBLVVEDARjGwVjz1ISM0SVB9FIBN35ELWajvxvBKUQ1qSxt1STum3wnQ/008BSdeCh8pOFI7s1bCoMDeB0ghtpobOqhOpWySPufqmt7ZuolHtzFoJoD+ciekx56NzIE1TXIaZNP28R4cyIoDidzVJ1MVKtZesELWLOrQNw4lwRh0ZEVKWekwHO8/ObYs/xPRE8K8jUCUVwt0Q0MLaEsvlWEnUFNgnYiFHnnOFwd8GKtrQmSWDnFntkwxCTZpgxm2xDLZkj+oL5PwDL3BI0qOTlNXkyWYmpLysyAlgDULLkcaueUAazaSAT9yKrpGmmT+ADW3DMwjYYXiU3WSDj3Q7GCVjEKyITiANRs+Ryo55wDgatKrKhuzbIA5Z0tdkpd0lC61ahZUSZ1ohbPLTm6AlYksDHpXn9Ty51jYkY7X46lEvB5XPOufAzQ6B9OBGeT85qtcdQD5SnTI+c3LWCgbLH8FgVUj591/Y0lrpGFrAqzFwFYMfpWa1PJ0ePrBLsRdqfhHyuzwn0cO0DyTxpdQB2zxO9M2ccvHXygr14x3YE1Kr1xuZOcvc2DljAAOr+ZYQc5P9ZOvirOMP85gZZsrp1Kl9/sX+x3sGwAlntdff113iUyVyy67zA5qGcx/2AcH8gyooykdzk8Nkz0HMgdWDqjet2+fnRfw/PPP29ZWjgBkmytHDW7fvl2uvvpq+ZEeTM0xgZyfypmr8/VwCaTO43paz65du+zgbG4o4KBsTvbftGmT3HrrrbJhwwaL833ve5/FSXwcmM0Rgw899JDccMMNsm7dOrnyyisLB7YAwBzEHSY4EBwIDlSCA5kDK8NyrjrhDFXOhjym15q8/PLLcumllxoAcoYAfg4cOGBAiaTK7QBcz8KBLYAyh2NzEhZXq3D+KnacrcqB14RbunSp7NmzR69J2W/gyrUqnOH62muvCWAOYHNlC+mTHjcLhAkOTDQOuKpsouU7i/zWZJwAqF5zzTWmBkCa5AxVJEpuB7j22msN7JYsWSLf//737ZBqQBQpFYAFaDkqDVUCp2NhR3jcGe6fe+65BtCoEDg8G1UDoMwVLUi3gCz+AXIkYMAXaThMcKCeOMDpcO3t7aMmGaGEg69pC/yIb7waOpCsTeYSK4dff/CDHzSAYziO1AhYknnAlG8Mfhje47Zo0SK7ooWDr/l2qZYKgSSKHhWpFbBEPYAEilqBIT7xAaAALHdsnTp1ysCYdyRbQNtP2sqa+ZFevjhQiwZYLgegjR9nFVPfUY/xjZBBu0CooB6jauPbL8HEnjAAJ20AYcQv1ESFRntAFUe7ufDCC20kiV9GfggvuBOXXbyp7Ym2tHnzZmt3jPwweeYb9GLgQZaT1pkDK5Jk+qhAAI4M03ty6Z9XIJ5MbuFGZUCixY5vL8grrrjCmAbY+g2uSxScPQ6Yiu4WoCWcAyxqA74xVLYwwQE4kGepjbpLPccgqaIOQ3hgvgDhgJEeoy/mFKjTCDAIJj4aA2DxDyiifuOqFsDGQZY43nlHbyRQQQSQ9bYGwALkfBMnbRG/Dlg8sfM2aQTm6A/tnHxmbTIHVgc9MuqFQeZdUsWeb9y80GEM3w6GPL1AvbLxTY/tYdJSKG6EcQZ7uqQVJjjgHOAA9jwb6jF1FzpRfTHnQD1HcgRMccfQBlB/AXhMynLTMWoxwjH5C9gSlm/C8CMO7JBQve0h/QKqxIMwhAoP0OXb2yJtKs98c55kXa6ZA6sXCBl1wCzONAXLz69k4R3jT94J60CZBs00oOJvpIaCID5+6feRxhP+gwOV5oDXd+YJGLYjOaImA+gwABwAiTRL2wEUUQsArg5+zDMgjHjdpk0BqMTHOwBK/KjWEHaQUrEjbcAb0OauOSTeejDOs6xpzRxYyaCDK0MaKgWF7yDqDIAhFLQDHPbYeVj350/35z0U3/wIU8zcweIgvbRf3rELExzIEwdcSqUeUz+9nTDU92WD2DH894lar/OApoejrRAX/hxocQM8Aee08TRctcB3mME5kDmwegGhD/re975nep1f/uVfliWqG6VwATN0PcziMyxhTev73//+AqC+/fbb8uyzz5o+jBtX0S0ByizheuaZZ8yeeEiH3vamm26yyuMsAMzxx3pXFP8f1Eky/BGGHv6FF14Q0sDulltuKeioPHw8gwO15oCDIHQ4YFLfXS3GuwsFLqk6ze6fZ3p0lxYo3N7bo7dZ4uAd4/HYR/w5iwOZAysUsETqt3/7t23mkeEMy6q++MUvym233SZbtmyRX/u1XzNgY+jx13/91/IHf/AH8gu/8AummMeNnpnhibt95jOfka26VOsP//APbeafykQFYNjDhgAqDZWECvMv//Iv8pWvfEVWr15tAPrwww/LX/7lX9oQ6p//+Z/lq1/9qoH5xo0b5f7775e/+Zu/MTfCRmU6q/6ERQ044PXQAc+/i0kZzL7Y32DfDrbpeNLvg4UL++Rmhkz5QGX4+te/bkOUL3zhCwakKMkBNVYFfOMb37AVAH//939vaoLPf/7z8uCDD8rHPvYx+da3vmX6nX/6p38ymj/3uc/Jf//3f8vHP/5xm+lET/TNb37T3KgArl5wUEUiJf7f/d3flV/5lV8xyRfAfvLJJ006BUh/53d+R37913/dNhLg5+mnn7b4M2VSJBYcCA7UNQcyl1gBVnQ6DN3Zw4+y/fd+7/dstpKlWL/6q79qDOX9yJEjBpgo6JFCP/nJT8qnPvUpe2fJCOoElmHRsx48eNC2qALQDOdZ3/pLv/RLpnNyYP3JT35ikizDfwxqBM4PQPXAEzUBAO7SLmcUsFPrE5/4REEHZQHjT3CghhwYTmoczr2GpE+YpGsCrL/4i79ou6NcugRgkUzZNYXynWE3Svd//dd/ta2pf/EXf2FDfxTqzGCiXP+3f/s3A9MvfelLNvkFsKI3BVBXrlwp//mf/2lbWP/hH/6hMIPJuQMANJNlGNIB2JGY+aFeQP1AxURfxdpY7MMEB4IDwYGRcCBzYAW0ALA/+ZM/sbMAfqSHrQCKSK333Xef6VYBs7/927+1ofqXv/xl21HlmWIRN0DLEB03NgkgYXIACzu51qxZY6AIwP7xH/+x6XP9dCzfzop/DLQgObOsBEBlhQKgjTtP3JbopBrG9U32EX+CA8GB4MAQHChsSfAZwCH8VsQJYPz93/99A0dm3plguvnmm21YjzSK+bu/+zvTp/7VX/2Vzer70AbAY+LpgQceEHcD8HB//PHH5dFHHy3oVUkHN37oWskfQ38kYQ5gwTD7z+4UFk+zAww/Tz31lMXHZBgSMCsSwgQHvDOGE+n34ExwoBQHTGJFYmMYnoVUhrT62c9+Vv78z//ctuMBdBhUAQz1mbVHT8oyK56ALTs+cP/Od75j7uhDv/a1r5mEyX5mJpw4JpDh/2/8xm+YOgGAvOuuu2yyi0kuJFgmy+655x5bgfDEE08YwJIO0i5pfPrTn5Y//dM/NUkZ9QRnD3zgAx8oxbewG4ccoCNlCydbnhnBAKC0CdRC1EN08KiTUCUt1XMmwgQHBuOAAStDZJ+8GcxjJe1vvPFGA0Z0rEwcAZpUVHSenA/wR3/0R1apfe+2byDAjRl99KRUdCo8E2F8owJAn/rYY4/ZRBhLr1jDCpADsAAnBhCm4axfv15+7ud+Tn76p3/aDpugEUEHYMr+a1YaMJFFhxNmYnCAEQyjH9ZPswSQOgHAMqLhcHY6Z860YKQVwDox6sRoc9mglaePXvjOO++0OF566aXRxjVsOCoqFdef6FaZ3V+iesyhpGX88xvOj6sMhiWkhAenqYRTWGXIAd25XrinCdUMP27503101oFWk5RHHnnE1EZ0vKxjptPGsL2Tk6AYHfEDWFetWlVNUiLuOuAAmMF80L333ivPPfec1U/q0HXXXSeZTl4VAx8L/fkNZSAew5NGlo4j/T5UHOW4VTKuctILP/ngQLpDBSzp7AFU3hlBMYnJcj/WQLNKhM6dpYBhggNDccCAlcrFsNqkg6F8V8htJCDmfqnkQxn3N5SfcAsODMUBdPzFe+Txj4TqJt3Ru10888uBWuGCASu9McCFrjVMcGCicgCdvp8UVYoHPmoq5RZ22XIgDZjpd6ignBhZICgyuhhOKKsG5QVg5d4pPzi6GglFnMGBPHOAIT+z/kyUMnoLUx8cAER9FJGmGLClo2SS23XlafdqvxuwUpFqhezVzmDEHxwYigMu7SCp0g5Y81yqoXocQ7m5H3963P4dz8pzAB6X4jPlRHmywgPDdyl/lacoibGgYyVheu0wwYGJyIFy5xdG0jhH4nci8ryaeYb3I+kEK01LYedVpSOO+IIDleRAFiBFGlmkU0m+RFz55IBJrPkkLagKDmTLAQdVf2abeqRWDQ74SDzrCayQWKtRmhFnxTkQYFdxlk6YCGuhEghgnTDVKzIaHJh4HKBDrkWnHMA68epa5Dg4EByoMgcCWKvM4Ig+OBAcqB0HQmKtHe8j5RFwwPVV/hxB0PAaHKgJB2qxjDTzVQHeIOlJeCfTzNj5tz9xq1VvU5PSr1Gizn/nt5Ph34M9vZx4jgfD0ZOctEZ+s55BHg/8y1seqJd+2L1v+siyrhaAlQqVlfEM8mRPL2l7A4aGtLvTVIo+9+d+4jlyDjj/i0M6b53v/o1/NyyqHy8gRD448J2dOmyDDFPfHABMqbN+h13WuSkAa1YJc0L7j3/8YzvwhXML2XaGtNDR0WESw7Zt2+z2AJhCZaeSc5r/NddcYwdkxJFtlS0p+Mx5o9xsy/Xj8J9DeTg3glttOQAdcOWqGg4oh/8cBA4AcW4p51ByC8P5559f6BArS2F2sVEX+Xlnkl3KkVIlOUD5uSDgz0rGX05cBqwMB7OqTBxysXv3bjue7cEHHzRVAA2UxsoNrTRyTmnftWuXcAkgDZ5rsDknEztO9cdfmMpxgAN4nnzySZk9e7YdQsLtChz0zB1hP9LLHimP1atX2x1g3OKwfft2u8KEU/VvuOEGO22f2xgA3VpV5MpxY2DEVMk4I67sOJCHOtjI4ROIzfyyMH6/FlemIInCBO6fuu2222Tx4sV22R+nctNokYaw59QhJFoa+htvvJEFmRMmDYbzdGAMmbgmxw8j4SqbJXqzA3yn450/f74BLCMIOkfc9+/fX7i6Bj95qNATpuAio7nmQCPDbSQNQGvWrFlGbLWlV05k51ZUbkDlqosPfehD8sMf/tDuqqKRo3RGimX4z3CUm1wBYq6NiaMNK1ufAEPAE2kVafT555+34TD3PP3Xf/2XDfPhPzfbcuAzow0ugCQMV1J8+9vfFu5/8sv3Kkodev9+/XtF4x0ksrHUe8LyK+cwl7GkMwjpYZ0zDpiYevz4cdm8ebPp2LyCVEv6QLLh4j/iBzwxvDPULE6T7/T109CWnjzJGS/rkhx4zAWK/HhHj+p8Xrly5Rllgj1+6PAwvK9YscKevFfaMJ1qU6oZzauWkwc6ffwVj/CwA1SHi4P6P14m/Cpd3uMpvkYaCwVNhUBxz7Oa4OVpORNJzxsy7+kfftydZzXpcnom2tPBMs1b3rHHuATm5YJd+h2/fI8Xw+TqYKsCmLCDL0js6ZsGuGiQMOXwAj9I+35O6HjhW+TjTA400yjofZn9pVJRcWhM1epVvSFDhvfe3oh5UvEwrvtN25lD/BkTB9L8J6I0f6kLfPPDeFnYh/4pBaDUFa8vpdw9bD08t2zZYqonrihiVAUAoktG548qikm9973vfbZqgrwCpvi9//775Y477rBvVkcAtJxa7wCMmoVJWdRerIhZtmyZqd327NljKhgmB+Eh921Vq93VA//HE40GrBQmlYrKQIWpZuFS2ZjdJx0qHI0X/RwVi/cdO3YY0KOHxdR7Y81LZTl69KjpR9FtAxQzZsywxk5jRm/KDaT8mPFH505nS5glOoHFOyDDiIbyA2T45sfEIhNb46GcAL1bb73V8rtz50558cUXDQTJG/WS/NM2AEIm+lChMS8Bf3zij8lVlg8CuNRz3qnndFbwk9UtgDWqN+KhHDZt2mSgSlxx71xeWszY6DAdK42FioTUiqESVKuh0HNjqKAbNmywisVKARopjZ6KRk++cOHCqgK8ETEB/rj0CQjAe5aq8Q640pFSBgAl4ErHhn8kLsofd0YxvG/VdaxLFGQBCxo/Q1ncAQremeyqVp3JqpiuvPJKW4kC8NEmyA9gulQn5+hwPH9uj+TJbi3c6Yyot9RfpFZGY4AqdRseAqLw2d3wT1j80LkRl5dVVvmNdKrHAQNWKopXGpJKv1c6aSoqDdvvaaeCIQ0A6g62VL7iYWil6Zho8cFb1CuAIDwHOCgDQBKpE3fsAAT84YehLuB56NAhKw8Agg4QA4AQ5txzz7VVHK4OqBhf6dz1X5Zm1apVBnwM2ckPE3kAH3Xxk5/8pPGHbzqRCy+80EijrcA37OEP0nsp4yCKdAt/WbKGBEs42gRp4FaOqT8ARrWUqJeGzx+qQMo97V9VVPxT6wa19r1/aR/peKuJX+l0hnovrySHimGEbkhMNEh68rlz51rjRUJgGApDlqhURKULU1kOAIRIZDR8gIAyoGEzTEV6dZ7T0GnguAO4lA1+HASwA2wBZSQwfhj8jwfDcJzOBaBzwAPIePclZXynO346IeyGUokA1hjvtEiDMgHA+WGwI57hgAE/9WWgt1yaNf+OoGSSdzW9IKoavhJu2eegf+AR9Xg4Xg4awRgdMgdWKiQV0CsQDZqG65ULCQjDd62YMkae5io4PITX8NmBgSeGdam40cFheAcoCcMPAHXjekK386e7ExZTz2WGNM6Qnc7F8+P5Sz9x4+d88rrqeR8qLPE4KOOPsOm4cPO2kE4z/T5c/Gm/+XgvH1iRRhsNTBNART610A0JnPLe407m9+wcUg7wiM6eel+LTj9zYHU2eCX0Z3HmvfK5/3iOnQPweii+4l5cDulUvazSdv4+lJv7yfMTaRFJnpETPKpVfsoBzVrRVk75DUq/Spzg4VnuDpKKmLg1NqqFYmifgmuiCrJQiaiqr+pFpVd96g8XXShqZBXHC49Yc+xzAVnzrGbAWk4hhZ/KcqBU5SplV9lU8x8bjdL1pGlQLW6spXKS5t9g/vHjbun3UvGl7UbiNx0uT+8Jf5AzE9PQ4DpUt3EHwFLVImhQk//SU/CiAoG+E4uy0qAUOMUO4xI+afHzEQSqAOYJ4H1CR+I/i78BrFlwOdIYMQcGmuKIg44qAI0xDarlRuKN1oGz3HCD+fP4cOfd6XL/aXe3y8sT/XGX/gAxoxPCDOx46NC8sUmeeuKHsmPzJpmsANvQqzplfXY2Nktf62S5/sabZcq558sPf7JDujqZrgI6dZ29qu+b5IjMntoga1ZeIpMnNWo6qgdvatV5gA7VW/fJtCm6RFCBuVF/rvfPGkzT5XAGsNaSkDRR8V5ZDtRluWaIrPAHFQhggHHw4lQ1wAJ3VrKwWoVjFVEXMKmHO/pYn8zzCT3sOVCIpWk0cnTZfog2k2NIUfyQqFiutnTpUlvuRtosMyQ8gEoaqChYlUEaLOciXuJimItfdMLQiA68VgZ+Qe/xE6elbdoUQSjt7gISkSZF2nR+8xjLzZSP/+dv/0a2PfO0XD5zuno6LcuuWyVv7Dssz2zcJ1/4oz+TNR/5tHzlvqfkVEeTSa/Tpk2WJYvnyazJHTJNDsuCObNl6XkzpKG5VdZt2Kxi6zRZ99o7cuzwbvnVz3xUprWqxKoTjWmVlpdrlvw5A1izTDjSCg7khQOAgoOp0wRwvfvuuwaqgCFLqdDXsTqAxf0AJkdact4FEyT4JR4ADgAEEPmx8Qa/HG4DMLMSAL/ET7ysLUZSJm6AmIlFDrwhHn6445+wgDtLEwFSVnKw0uCtt96y8LUEVudZb8Nk+T//9LjyskHz06X517Mnrr9OnnjqIfmVX/lpaZvSIlO073r/1Oly98K5csHF02XWtfNl9/QV8vaX/1smad77VMfaIbrqpGmyTGrqk/POnyfnL2Sy9bS0dulSP+2MeqVNDrzXLuveeFfmnbdUmrSjW/eTF+Txp9fLPXeuomd0kmr2dDVFZgRQ+dKGCu0/7Ivd037jvbocKOY9wIDBnsbs7v6k3NxPdSnLLnbyhEGa5GAajK/ZRVoEzJBg2WHFOwDJN8CHQZoFaJEmAU4HYveLH/wi6bI6BknUl7SxbAtQBojR+cJnVsmw1phNBITBL3bE6yeNAcpeJsSfpYFf5F//2DD8sosXy+n2o7pkqksH8j3y9NNPqySrG1IOHzOyGpta5HRfjxxVkDzW0SvHTneKclCaWbLW2y4tGpWu6tXhvi65bJ4sxxSgm1unyoWLL5MpbTNlattUVSkgDfdqGbVo5WzWMmDSS9UFjboVHwUCorIaL8vkK9u/mUusDKXefvtt+eAHPyjf+ta35M4777SKQ0WmkdJ786SiIM57hcGdxo2dFWS2fJoQqcFrjgFEcvrwhz8sDzzwgC2S37t3rzX4j3/84wYcDz/8sElPa9eulW9+85u2DZTF9ZQb5VTPhrqVbpAA35tvvmkbJhiiwwsAjg0CvFNfMTwBRg4IBxSRKJE24YdLm9jjDzviYBss64MZziOJ4sY6b9yx83oOUEMDagPAGr8YQJYwpON+zSHDP54uWNaswPZTty+T2z+4TFR9apNNWqUEjGw/flK/O+Rkb7fsbD8lnbu1re/aL4tOnJSX9z4tW3e2KxiflkkoADr2S0uTzuh3dcuxhmbZ/u5JOXV4vzSf2ictvculWcF08bxzZMWyJXLsZIO8tXuHXL50gay9VW8Z6exQ/rVmyIHSSWXeCqgc9913n/XWHHBNz852Wnp0Kg0Vjl6boRfH07322msGrvfcc49JDqWzEbaV4AA6Qg4fByAYdt58883WoAEQGjzAS4On4SOpff3rX7cbHRjmsnMOEBovBsBgEwu7rJBU6dQZpiORUkeRKl16Jc9ItfiHLwAo7gzPEQTw72u38Qt/iRMAxy/f1H0Mfl23Cg0AJ+fkkj5+oYF1x3RivJMGIO8AZ5HU4A90tk1qkh4FthbNc7dKq0ZTk0qWqhKYMVUnqHqb5P/+zd+STbd8SCb3NUpTQ5t09J2QhdIpP9U6SW+juEUWzG6RX//s9XK6U6VYJrg0pkblQ6fqbKc3qSplqm7UaGmWTs3/agXWI8dOyIpLPihzZ+lOQAXtxm6FeKWl1uYMYM2icEiDQ7V/8IMfCOd9oj/iIOX/+Z//kSVLllhloYGyw4frQlDy0+NTsQibliZqzbzxlj4gQFnAdySp7373u/KZz3zGbgqg4dDJsXuLdxo2BmkKMMGu3o3X//STToSfm/QhKeTZ6yNh4B8/gLKUSccLgGIA4FKGeNw4DYPFm6bPw9Ti2aKAp3Kr6Tihn3n9JM+oV/SnVeSOtXfK2tvusImtZJ1q4sbfBqtDDfJ/ffiqAvnUKtx69A8cQQ2AgWv8psxLdrRhp1CsegT99asCsKuVgRMF45UEyaRaDYWe+6677rKZT5iPBIDkikSKNMswlJOtAFSkBSRXKhQVGvq8chaIjpeKcYDGTiOl44PnSGRcv0JdQIXDUXo+FKYcP/KRj8jjjz8uN910k/mvZr2pWCaHiAj6+Y3UeLsZabjx5R/4w5yJavAGFwNZe8JfFZD0bwKZPAmj9r2qH1X/xV00rgZU+lIonhLJmRV/ziRBLbI3zV4pkDwY7mGqBarEzRAobQBKhjI0aKQg6AFwkWZR0FPRscPdaU2Hj/fKcQB+33777cZn6gC3r1I+lAc36noZeDnwjURLOEy9d3p05pjRgKsFzOEfLyt/1oREBTrHwaHSTx+wUuyP8OXEURyuVmVpwMpwhKuPszA0PgqZJ5n2hkvaNFQfVvpQiUYdJhsOpMuCFNMdrJdHMSUOqsX29fiNcDHY0Lwe8zMYzayDRT+bZdkNNw5AyCxH0PQOwjEkjSdu537IP3MCtTB20DWNhskKGF5tA5gWz+6nGzDpO4OKaYGJYYIDleZA1KtKc7R68TmQkoIDKE8EMn55mUA1YKWXBlyLAa4a7GFShOVWMIA00eMxo4qBDm5l5SZWZkbDTGAO0IeOZuw3gVlWz1n3oh5OdAJEWbeLcObAytzMP/7jP9oczec//3lTYdWaF6YTZn0e0qof3ltNojidniVWgDgTVRjsAFXSZ1KEnifMxOZArXEVfT9rUVnO5AvwachMotJWUBugpqLtsFQKOwQEGjl1maE2Otv0KoI8lyiTlKzEYfst+eJHvskXbdXPUR5tHoonpIinWD0AuJYDrAhm0IvqEAn2lVdeMZ4jkLHGevny5Sa0jZbWSoQzHSvD83Xr1hV6gWoOjViDx6VsqB5YusOTCszVFDCKCpul7qcSTIw46p8DxXWes1kfffRR+Zmf+RnbYsrIioX43In13HPP2coJRl1c2cLKFlZNUH+RpBxQAeV6AFbWL7NZgfz4eQd0DFu3bi20R9zgQR4Mwpevq4bn4Nc3vvEN6wxuuOEGww+XZmtFr0msVAZH/+IKVmnCKByW87DYmcKiElIxqYQY1qzWmimVznPEV38coB1wBxs7qTBIbUhxvvefd9qNq7HYcvrss8/ajjVGYn7dUD3knBEjUvcll1xi7ZFOAmGHDQ/wgHaaJwM+UB5gFoYVRKxOgea7777bpNhaY0hCWT/XqChZGIZK/DBIqPzcUKGrDe6eVjyDA6U4QKPkx7CYNgGw8A14skuQnVCMqlwlQH1FwgOEAFwEBVQJvNeD4ewBzh146aWXbO04cx/Qjz1nIrCmmWE29rU28BpQdfUM9GDnd+bh5qDqz1rQfAaw1oKASDM4UEsOpBtf+h0w4RAWwJGhJoYGjFTn7yzlAXSxR1Dwxs2orB5UAOSDPCP5rV692i6KhG7UdQ5gnr88gKoxXv8wRwPwUy50cLy7SasR0+Xp7lk9A1iz4nSkk1sOACI0Up4Yng4sfA8meaLrc4MfpFYMUhO/vBrPp9MHAAFI/HhP054eTeJWHNbjGM1zuImqUnF6+q4GwE/63TtB7KGXXy1MAGstuB5p5o4DgImrwkbSGL2hexi+/T13mVSCoC9Ns78PRutw7oOFK8d+NMBKvEPRlHYDZL2ToEzSbuXQNxY/Aaxj4V6ErXsO0NhodAx1WebHKhUaY57BcbRMJ0/kjRUPdCJIelmCzWjp6QYziAAAJolJREFUHkk4B1CeACsqmsFGHCOJd6R+A1hHyrHwPy45AOAwC85qFZYc1aIxZsFYwMaHzmndZBZpZ5kGeURP7uXogJsVDQGsWXE60sktB1xq44nk6sADwe6WW+KDsLM4UKrMStmdFbCCFgGsFWRmRFX/HKABupRT/7mZuDnIWkIt5nR+py6LKY3vCcUBVZGFCQ6MmgNZS6jFhBaAFYQPExwIDgQHggNj54Ae2D2wDKHWKD/27EQMwYF8c4D2FkJMvsuoEtTpPV3JajJmC6PAK8HSiKOeObB582bbc54GQG8XHHnJqUpsp3Q78sp1NSzV4tyLQ4cODZl9b29pT+m40u9pP/FeXxywyStf0+bbwSjcUhWgvrIW1AYHRsYBDlHZqic6MXl144032rIrtk9yqhVtgxtsWRdJ28B9j94mjP2rr75qlzByMSZtiTBsa/V2xdnCxOvbXFlHylZRP/qOPfmsnyXd9CFE0QZHVn558m0HXXNCD4cssEUvQDVPxRO0ZMkBTq7iYkSWW3HC0wsvvCArVqyw9a0cdQkAAnYA42OPPWaL7VkLin+O3QRAAVtOtgJEaUtcnAmoIgn7wUNckMkIkUNdkHI3bNhgcWLHMYUOwFnmPdKqLAdMYuUwCXpbKo5XlMomE7EFB/LPAc5a5Vp2zvoEBDmMBJDjAHbAkY0DvLPWlY0EHGoNqOKHdkMb4oQr1AGcjMXZAQgtSKdLly4t+OHb7QBpgBZVAkDs5w3kn1tB4VAcaKaXpDA5mYdnenH0UAHDLTgw3jjADcL33ntv4SpvwJIdWfyw96E93xjAEAmWITx++aEawB4/3paWLFlibvjldHsPgx/AlFO0aIfYEyZGjfVfs5opXHpNhirodyhgrzj1n73IQXBgZBwAGAFIDEAHyNEm/NsB1Cz0D2744Ue7wd3bD0BcbNyNcB6WdPhhCOPvfBPvaIyH8+do4qiHMGleOb3kGXt47Z2bu2X1NFUAwxJ0rKUqQlaERDrBgVpygMaIvpMnEmi6wQ4HTu7uz5Hmozgc3/4jrrR7mq5y0hmp/3LizIsf+OKdUzFNlCHlidqGX9bG7rxCd4SinmGK96hZExLpBQdqyQEkTRoqB3fQBhzMHJj45t2ftaQ10i6PA4w+wLZaAGth5xXqgDDBgbxwoH9knBk5TEYBqA6enjBA6iBbDqi6Xw8/1qdLZGk6xhrnRAnvHWQtRuIFYJ0ozI58BgdKccAl0/STd/8mjIPmUCCX9l8qnZHYkQ7x+bOScY+EjvA7cg7E6VYj51mEmAAcYGaf++sxXB7IcBLJxzcFsAkAPV61TBrE2UjA8q1qpletfEzUeANYJ2rJR76H5ACqMW5kZd6BnVcAKaAKyHELK0N01q2yBpyF/vhhzSrf7e3ttg4Wf6xR5QBtljOy9ZWrsdlIwE4rzLJly4StstizRpa1seh7fQKNm2DxS5gA1iGLrKRjraT8UAWULI6wDA4klwICoAAfEiwTITRU//E9a9YsA1hmoNmthcGdlTZsKuCue4AWCRTQRPplaSObCpgoA4gJB3AiEZMWgO4rFLjMjzTC1BcHAljrq7yC2ow4wPrHJbqwnx1T7MR65513TB0AyAGKgOfs2bNNGsWOiRLAETd/EhY//ABW7ImHK7R99xUz12wQQBJmAg2VAzu+OGuALeZHjhwpbDjIKOuRTAU4EKqACjAxohh/HGBLK8N3DMAK2Lmk6k92amFKSZT4waAm8MkntoyjUkgb93fNNdeYP/xg3H7NmjWF1QrpcPGebw4EsOa7fIK6HHAAkBtqBw/S6lDGQRI/6fd0GOxLuaFXBZj5DRU+HVe8154DQ9eI2tMXFAQHMuEAwIkelYmjwUBuJISkwXAk4Ur5dXpKAW8p/2GXcKBSZTkafobEOhquRZhxxwF0neg4mWwCZF1CHHcZnQAZouzohABWdN7DjSiqwZIA1mpwNeKsSw4wA+/rVUM6rMsiLBANuNJB+rK1gkNGL2cAKwgfJjiQBw6M7kynsVEOmCK5pvWpAbBj4+lEDW06Vq88Pvzx50RlSuQ7BxyoBbLmINtBwvjgwBnAWjwDOT6yGLkIDgQHggPZcsBUAQDqLbfcYguZkV5dgs2WlEgtOFBbDrDzKa0GqC01kXo9c8AuE2TozwVoLDcJExyYqBxwUA3BYqLWgMrluxFQZZfJRRddZBJr5aKOmIID9cUBzgV47rnnZPv27bbcyidzaSP+ww8HtODGO/YYf7qd+8fN7Ximvzdu3Fi4nRX/7s88xZ+65oDdIIAq4PDhw3Y6T13nJogPDoyBA1xpzR5+TrFiPSttgi2orIXkQBXAlB8qA7ax4ocTrPADMHK037PPPmt2HKLCVljukQOs8c8JWEv0/AEOXWFpFwLNK6+8YqdXEQeHtHA+QNzkMYZCzElQXTvbaKf2cKoOC6TDBAcmKgc4ng8A5NAUDkuhPfzkJz+R3bt329msSKreRliWhYTJGQKPPPKIzUsAyBzzt2nTJgNnQJIwrI19/vnn7UCVN998006uAmSJl3YHOGPPIS3r16834HbpdqKWRb3n2yavKETOlow7zeu9OIP+sXDg9ttvN+kSSfPqq6+2eYc77rjDjvlbvXq1AS7zED5sv/zyyw00EU4AUUZ+nLkKMKOnRSKlbV1wwQV21irzGKjcnnjiCQvHBZ4cPXjo0CG57rrrbMRYy0XtY+FdhD2TA4UNAlQOfmGCAxOVA0iOgKu3A0AQsFy0aNFZK2UATPxxnuo999xjZ6vCt+uvv74Q3vnoJ1wB2ADurbfeav45ABsDUJMOTyTmmDxzztXv03Ss9Ut+UB4cqBwHAEuG+uhRkRz5dpAD9Nyk3/HHUJ/DrNN+037cnvgw6Gx5P3Xq1BkgTBh+7t/Ti+fIOQAfvWxqwc+CxDpy0iNEcKCKHOA40wEsq1pCDmRMSPk99DTIchojYZFa/QmR5YTDn6fLe9pgH2ZsHKAM4CNlio4blUy55TK2lAdCB7AO8CLecsSBjHC1kGMaIQZQdVVAwTFe6ooD6U6LzpKJRlQtWZpQqmbJ7UgrdxxwSYbGyJA+QDV3RTRqgugkMZQtvyxNAGuW3I60cs0BdKtDGdeRlvKTdqtFQy5F00SxS/OePHtnyZNf1qAKDaEKgAthggNFHABkX375ZduFxWV//FhqxbCSiSomoNDfMcREh7dlyxZb4L9ixQqzi6WLRQyt0icqHJaxsaSNYT+XMi7VSxxrbQJYa10CkX4uOcCuKnZIrV271taavvbaa7aeldtTWdjPGlQaMrulWLcKsLJ7yjcUfPazn40DXTIq2Yceesg6OlZZsDQuD8AaqoCMCj+SqS8OoGv1JVE0WHZTAaJIq4Aqu6wOHDhgEi1nC3CjKzu38IMb0myY6nMAPernPvc5KwtGCZ/4xCcKidZCBeCJh8TqnIjnhOeA6+ZgBJIpu6/WrVsnl1xyif247ppF/uzz51wAdllxFsCFF15oW1K5qpqh6BI9DwD1QJhsOIA65gtf+IJ1hIBpuhxrBa4BrNmUfaRSBxxIN0gk1mXLltmvuLGSFeyQUt0AuhjChMmOA4wqKCtfzVEKSCnXdNlmQV2oArLgcqRRFxxIN77B3j0jaXe3i2f2HHBA9ZTT5ZJ+LwW4HqYaTzvouhoRR5zBgXrjAPpTVgNUohESRyXiqTce5o3e4ZbQVYteUwWwhITlCjNmzKhWOhFvcGBEHMh2OXdCGhMh/CoFiJWKZ0SMC89ncKCmwEoFQGzmkN90ZUiL0mdQGx/BgWpzoAbIyiQIQkaY8cMBDtUBx7LGMruahQqFtMqykqwJGD9FGDkJDgQHggMJB0zHCqrv2rVLOMzXpddiBg1mX+wvvoMD44UDDCMROtKmnHbATHUpKcnD8gxTGQ7kVRBspvKw5u7iiy+2QyiKCU1XgvR7sb/KsCliCQ7kgwPsqmIXFWtWOfAaNZkf6gFwch8Wh7b4YdU7d+4s7PhhcwAqBbbA0k4AZ+JjxxZzGbQjFrNHG8pHWVeDimaWKyCxsiWPZzkmKkQ5XAo/9cwBBA72oQOcjOZcAAEsAUqeCCT82IEFAAOYgCfXrWDP/VfEgX/c2SZ75MgRW8i+cuXKAijXM5+C9tIcaAQkKXwqB0+MS6b+9KD4DVB1bsRzvHMAyZQdWIAicxBIouy44joWwBJ3wJIfwIvBD2cH0HaQcGkvbHXlokDAmHkM4ixefzneeTnR8jfozqtiUJ1ojIn8TjwOeJ3nyTCfLa1sYQUQuWyTu6sARLaxcroV615x4/AVVAW44QcJFyAFWLlHC2DmwkB2ZTEq9PgnHocnTo7PAFavWCGVTpwKEDlNOOB1ny/qPzpSQBVJFOmU8wJcysQvfpA83b+96B90p8xXYABVb0u8YzysfcSfzDiQNd/PANbMchkJBQdyxgEA0IfzadIA1WLjYOnPwdzT9u7Xn2m3eK8OBwBTfpis+T5iYK0VodVhfcQaHEg4wLCdmXuG6oCp1/PgT345AFj6KKKYStwoy6H8FIep5PeIgbWSiUdcwYG8cAAwbWtrsxl9QDVrCScvfKg3OkqVk3eKuNVqWVsAa73VpKC3KhxA8gFYmbTyJVJVSSgirToHvGOkTAeTaKtNRABrtTkc8dcNB5BwkFxL6VXrJhNBqHHAwbVW7IjzWGvF+Ug3OBAcqBoHSqkIqpZYiYgDWEswJayCA8GB4MBYOBDAOhbuRdjgQHAgOFCCA6FjLcGUsJpYHPBZZHLNEJKtqrWa9CiH833SW463Qf3oIqVB3caTQy31rAGs46kmRV7GxAFWA7CWFQPA1lpPN1hmehvGBqyNfRMHWFnp4aeSDcbPatgHsFaDqxFnXXEAAGUxOQekcAZAXgHVmdrXMLbzXBv6Gjyqcf30jpJzHDBZlqsBK8tLuBt9id6HHiY4MNE4wJCRRshRf64CwI4trunGyLu7w6PioaafKzAc/4rDDee/2F03ahZbSQKV/MWtQf8i1TLo19PrerulQdd0qgxu4dJ5MouiP9CHOqQ4v3jDDYPbSFUmnm9/lssvS3AUfzjvgZPISCdrqdWAFXGZO9I5SzJMcGCicaAU0CC9AgBpIAVIAF9vpA4uHh6/DhpD8RA/AHkl79dK4FRUlZEcst3YlAz3u3q6FQAVWJQ2JQ5ELIBjKRrJix/UTX4cYD2PhPFtv77el/y4wV8xDzy/foYt4QC7LAxppWnPIk3SaPSemjMjOaAXk2aUWcSf4MAE4wBtAIGDLZH+Y1cWQIPhSZv52te+Jl/96let7bjbUKyivXHY9Q9/+MOhvI3KDYn0rbffMrr6+nqlR9P68l9+WXbu2GVtGg1AKWnXEwOAXnvtNXn99dctDvIDuDpYwhNAlfwePXrUVCeEdXfsvvKVr8j+/fs9Snty4Pejjz4q69atM9CGB2+//basX78+oSsFzGcErMBHrbCsGURHYc9J6TCyVoRUgIcRRXCgYhwo1Q5oHw6egAnAiuEM1hdffFFeeOEFOzIQe44UBECuvfZaA6t33nlHli5dKps2bTI/ANT9999voH3TTTfJjh075Dvf+Y7cdddd5p+zXv1K+u3bt9t5sO9///vllltuMWAjfQAf6ZmrYxjy3nDDDXLsvWPy0LqHjE4O3H715Vdl1cpV8p1vf0cWLVokXCHD3XZvvfWWgSMHd998883y7W9/20at3/3ud+0biR2Q5bhEzpLdt2+ffOITn7Aw3Dby9NNP2wiXvHNW7ac//WnjBXTgH5Alj1xvs3jxYjtIH54+9thjRiu67K1bt5qfa665ZtztdrMbBKgI9FIwmQLjFyY4EBw4mwMOuLQR1AKA1JtvvilPPfWUAQjSGYarV/bs2WPgA/BwtitAO3/+fHNHGuYAbNwAGf8hySLoAIDc6oGkx/1aAJwDO0N1JmQuv/xyA6QnnnjCQJ448Us4wBpwXrFihUnI0AO4z5o1y9o5dACCpPvjH//YAI6bEABz6ES69A6DYTugvHnzZpk7d67ZA5zXXXedSZ0c/E18HPjNXA30wROkUjoTvz2BPAGmt912m9H97LPPWrrjEW+aqShIrQcPHrRCtlKPP8GBCc4BGnuxHtBB1VmDagCwAowAWADq+uuvN+nz1VdfNQmS4e6qVatMugSofvCDH5hkiKQJ8AJEpMU3YHnVVVeZPUDGgdmA0pVXXimAJ+CIPwANaRU3wiB9AmC0Y24pwJ7f8uXL7Uk8jz/+uHz4wx+2oT1u+EOqBgyRLBnyEz/A6WkQ5md/9mcLk3h0JFxRQ/oANDTdfffdNsolD/CHeJFQ4Qcg/8ADDxht8AD6MA8//LCsWbNG/uzP/szy6rpX5+t4eDZoL9i3ceNGG7LAFIY0QxmvXOOxlxkq3+GWDQd0sG16wL7e5JDiHp14Ef1PY+dXLYN0B7gg9WFo7Eh0aYM7YAqouQF8aQu48Q54IFnSTrArbieuSsCNITWSHuCIPyRF7PmVa6AbqZfJZybDvH2WG36k/qBzsDSGchtJOsU8G0nYYr9I1qg5HdSL3cfyDR+Q8u+991557rnnrG488sgj1vFUr6aOheIIGxyoMQcAKb/aOk1KMejRYAFUht/oNDHFfgA/wAJAxo0GyQ8pE3uGzgD2aDoO1AlXXHFFmsSqvg8GqlVNtA4jD2Ctw0ILkrPhwHDLoRhCv/zyyzYsZpIGlQATMegWGVJj0Cki/TK0ZxjNjDkgylCaoTgquPvuu09+8zd/0+yKQbmcnKYlvPR7OWEr7afW6Vc6P6ONL4B1tJyLcBOeA6jQ+AGaTFpt27ZNXnnlFdNZ+gTTjTfeaNLsN7/5TbnnnnsKa8W5yfXnf/7nzT8z7oC4g5JLhf494RldhwwIYK3DQguS88EBhuEAIkN8JqG4iRUplh8TRoArP1QKTCShEkBaRSpFt4q0S1hm1R2IcQtAzUf5joWKANaxcC/CTmgOLFmyxJZMMVvOpBf6VtaaMgnlkyWoAQDTO++801QCPtmFPhUAJuytt95aCD+hGTqOMh/AOo4KM7KSLQeQLlmuNJRJryAo1tn6CgTANcz44kD56zrGV74jN8GBuuSA618rQXwl46oEPeMpjpBYx1NpRl4y4wCghF6UFQDM7qMndd2oP5nQYtYflQGqAdaw4sbOKlQBvPsqAN59/StuqAxw48dCe9aqsjyL1QSkzS+tVvB3GEA8Hi+rEqCTFQvohJ0G/BHGl4t5mk476zORqNEP+/pawmBIG3/8PA7ixWCHioPlZ0zquR/iJx6+MXyzQYIlauz8hA52gRE3Zyn40jUOhmJjhafp+bJIcvwngDXHhROk5ZcDAASAwAJ0QA8gAsBYUoVOlSfnArDnHoDFjnd2PbFbC7AANNjqyqoAtqACwrixc4mzA1AzsG2V7eZLFJwBItIjLraHoloApPHDdlPACTuAjd1aABk7wNgOy64wloBBAx0Bfvnm+dJLL8m5555rS8EAUsCL9NmJRRzujj0AR16hgck4NjdAGysiCAsoAsgbNmywCTzcoZt8O4DCJ1ZLkC+Wp8EfgBh7AJWzBgBlJgSx5xs6oadeTKgC6qWkgs7ccQBpDXBEkgTg2B8P8LGjCpBxSRYAYp0rE1mADNItAMo34fGHLpb9+YDpG2+8YdIbQASQAW6sIsAPIOwACwADlCz5wh8gRBh+AC9bXQE5wBv6ADtOsOMHEANigBr+ATnAjPgBOECNOKGJeKEV6Zd3tukSBx0BYX70ox9Z2ZB/DoyBBwA1IM+hK0ize/fuNWkbuogful36JC7W9yJVQxfxuPQKqMJnABt6XDLOXWUoIigk1iKGxGdwoFwOAJ5r1641gAJsWFLlgMCwGykNyRbgYH89k1SACm5XX321gQVLtBgW44/980i/7LNHQgN4cGOrOQCHhEkcAM2ll15qQAs4kg4ACT1IiIAfUiSnXiGxEidxA3hIs3QErKMlTcCPw5eIg7iQdKGX7byAK24ANCCOFE4a0EweAGzSA3Shh3fsoQ/aofUjH/mIATcqDHiDwQ2/0IikS3zkkfjhofMGmpC2AVQHYWiuBxNnBdRDKU0gGvNyVkA5LHd9JY2dxs8PyQrQYKjsIOD+PE78eRh/OnC432I/2Lsf4knH7d/YAWo8PV5/EpY4MUjADuZ8e9zu7t+ExTgtvOPGt9OC5Ik0DHC6/1JhcHNa0uGJLx2OsG7cHv9Og9u5n+GedCZ0BnRUlTbQNOhZARDKD8b48o9KExDxBQfGIwe8kdPAMN6O/D0NBrgBQrQx7B3oGIYjqblxwPI4PI3BgAF390O8aX9uX/xMgyrpOC2eJt+ESecLN0yaPr6RUFFReBrYYdLf6TDpePGXdnN++ZNOgvx4mFL0EEcejakCYAxi/3Br8vKYgaApOFArDjCsZpjsukmkVIa/SDEMndEnojdEB8qTg6MZ5qNXpb2hS0Tau/3228/KQhqYznJMWaT9pd9TXs56LeWvlN1ZAQexGGnYwfy7vT/TnQQA7IA7CBm5sm5GFCcD6FSKr1TIFaVBTHAgZxwAFAFPgJNZfnSX6FrRF3LCPu7oMpFImbxiAsoPlWbWHZ0pEiw6StpgWnqrZVYd2Hi6lFhLeuoxbTvomllLGEhBhwkOBAfK4wASK0NhZsARUJhA4h2JlaP8mNEGOJFQmRTCMCGDHpbRITPofDPLz8QRulkHtfIoqL6vatAz2jhHG676XDo7BbvzispBb4lOwxXbZ3sNm+BAcCDNAWbMb9NrRgYzgC2TJxzIktajYk97Q8LFpIe46ffB4g37/HOgGTBlyIJinWUWKLbDBAeCAyPjgA+ZeTo4ImGld0rx7W7+JBW3H1mK4btcDtRC0jVVAFIqOh9fZzYUwbUgcih6wi04UAkOsJ6TGXoEi9EIF94u/JmmKW2Xfh/MT9o+3kfOAR8RuO6aTixr0zxYQWdNSKQXHKglB5g8QiXGJG4tGmIt8z7e0gbTAFfKFB13LSYFY9w/3mpV5GdUHKDx0QhZMhXAOioW5ioQZUiZ1kpwDGDNVXUIYmrNgVpIN7XOc6RfeQ7EISyV52nEWKcc0GmnOqU8yM4bBwJY81YiQU9NOMBpogVgDXytSRmMp0RDFTCeSjPyMnIOKIj26lkjyTHNqpPTGHTuA5QNUw8coKxSJinHxMLKslCQRR5TYarxGsBaDa5GnHXFgUZAVNtd0ij50F9DfxMNgM1vWZbAymQIrqsCtED1DDH7kYEEZLPLSgBrdryOlHLMAcAVSZXGSKPUc5cSaks03hxnY8KRRr83IKUO9IKMPVi+2qTlRxFmXYwBrBOuKkaGz+BAA41RT6ZXIOVtzxGRwyfYPXWGr/jIIQf6FC2T0nPiki9Ks1V7ynkzW2T2VD3Mu+AruymlAFYvk3hOOA54o9QVj9KhuX/sxUPyv//1R9Le1SyVPxZ5wrG36hm28usH1ySxpES7u7VE+07JJYva5A8+d6csWTBNJjXorQY+Cqk6ZXpZYgZpRBLBgVxywIeIPUrdidMi/9/Dr8iu43ryf9tsbZgqDfUNDDKTDCRKglxmpgRRqDV0MNzv4nnh6Tk/U4JDI5nIgP1Bcv9gHUdhLUc/tZq3BhQBHbJh1wF5bf02uWzBlfpNnrMzAazZ8TpSyjEHuhRd2ztapKeJ3Tp6r5S2Q7ZFpk0j+gFTHaRtc/yuY+Xes5Y4AJ4OqPrkU/NEthJgzXF+iknzCcYie0YgTQ1N0t03TQ+X6jA9q6A3yBBbA1iLCiU+JyAHAJfxaBR4mgw4kcn1pQ/pFVA1FFWJvMfkPcMb6zAyRJ7xyO9UngJYU8yI1+DAeOKASaG9XdLYxIV9gGm33lag0mlDs9o1G6ianMpC3sZkFj1Lqa5avM562F8qHwGspbgSdsGBccAB5M9Jja16xXW33rV1hezbv1e6VcexT6/HntTWJF06yXP6dI9MmTxNjh0/Kci1mY6XLb3q/Ukk8X5tR/WSKRlzAGtJtoRlcKD+OYBKuFd/SKGNqjvu6GyXmTNmSVPjDJk7f54cO3pSTrZ36rUw58orr76pHscHHJBlN+l3t8vi6VrsLNKKNIIDwYEsOaATVz26ppORPouNunubZMfuvTJr9lxpVXXAe3v3yHnzz5GD+3ZJb49O1NlEV5YEVict5qlqbcZHF1VrLkb6wYFcckD1pqoK6Ozukrc2btPLDY8qlX2yZ98RXYTVJ0ePdxrY7t5/SEXa1lzmYCxEga+1klgDWMdSchE2OJBjDpjkpms6e1Rk3b9fwbSpTantki3b9+lcVYNMa5su724/oMuS9HDvxhZ1A4ZqBUVVYKRmpVa5CWCtQnlGlMGBfHCAzZ3dtj23sXlSom9F4doyWQGnyXaYnT7cru9Iq6xpTaav8kF7GVTYErGh/dVKKxDAOnS5hOu454AuztHW5w2QRfL8kHQSu7TMw3v6O//M6TWwZCkVuWHzgy610itLVETVTQHNllefaGFhfT3lj+tXrKTO2iiQ7DmjHFnH62WbZWkFsGbJ7Ugrlxxg++oUbQnvv2Ke7Dq4Xjq62hV0AB9ANN0skwaby0yUIMq6AMi3l2Rra0Nj/5ZWBVryyFleyflQuKtH81sishxa9RYAtYho7SlbG7tldlu7LF44xyR1cpqlCWDNktuRVj45oG1umo6Gf/Xe5XLRRQtkx573pFkluzD1yYHenh5paeySKy+dL9dfOUul9GxBFa5F7anPuhNUV5gDHBp4TmuDfPSG2SrhnKP7y5Fx6ktCrTBL6jS6RO3RrFiKqqBZd5Qlxp/ZZCuANRs+Ryo550CfSjVNOizWOXQbNNIM7Vc0ysx5NoI8dBkmoWpXqc/C/Fa2uBoSa9TE4AAcYNoGbWOTwilDR9Sr1hYzbpDQEmYMHPCOUMutAKpjiG60QUNiHS3nIty44ACzyj7kT6Z3kiZhQs+4yOEEygSg6h1hCmBrwYEA1lpwPdLMDQdUPlVavDXmhqwgZDQc8GJ0UB1NHBUKE8BaIUZGNMGB4EBOOOAAW0NyfG1wDUmIpIMDwYHgwPjiQADr+CrPyE1wIDiQAw4EsOagEIKE4EBwYHxxIIB1fJXn+MlNDvRk44eZkZOsORDAmjXHI72yOBC4WhabwlNOORDAmtOCCbKCA8GB+uVAAGv9ll1QHhwIDuSUAwGsOS2YICs4EByoXw4EsNZv2QXlwYHgQE45EMCa04IJsoIDwYH65UAAa/2WXVAeHAgO5JQDAaw5LZggKzgQHKhfDgSw9pcdp42HCQ4EB4IDleDAhAdWB9Ra3ItTiQKMOIIDwYH8cSCAVSXV7u7uskrGQbgsz+Fp7Bzw7Vf+HHuMEUNwIBMO1B2wlgtuPXpT4+nTp+1CsaHC4Nbby6UcZxsPh7u/uy++i+3Sbv5e/EyHS78X+5uo3xw8bf+4ryj1m6j8iHzXJwcyP+j6xIkTsm3bNlm0aJFMnjxZGhsbpakpuRQDFvIO4HR2dkpra6t0dXVJS0uLtLe3m31yH1GfTJ06VQBPb3yA39GjR2X37t16hfFFcvDgQQuzePFiaWtrs3SI3/3zjhkMHPft2ydHjhyR+fPny6xZs86gyWngWWyg45133pEFCxbIzJkz5dixYzJt2jRLvzhtDw8N/l4cX3wHB4ID9ceBzIH1vffek5MnTxq4TpkyxQAHgO3o6DAAPX78uEyaNMkAFXe+58yZI7t27TIwPeecc2THjh0GeM3NzRZmxowZ8r3vfc8AlLj3799v8QJy+AWYMbitXbvWAH24ogLUDx8+LKQBWEMjdsQBoEMj8fO84IILCtEhJQPKdATTp083OgBXwtKJHDhwwACXeABcwuOG3zDBgeDA+OBAzVQB8+bNk1OnTgkSLOAHGAI6e/bsMTBFggN8AKi9e/eaRIf0CpgBch6OJwbARWIFjHGfO3euhecbyRM37AaTUIuLE4mYHx0BoE940kCSxkA79gB+2hA/YAzYAqh8IzFv377d8gjoAtQAKrrddevWGeCm44j34EBwoL45kLnEOnv2bJNAARtAEikOAOMJIB06dMhAB0DE8M1wHDDiiR8Al2E2kiPxoT5guL5kyRIDQIAVd4AYUL3hhhsMBAFh0i3HkM75559v6aFWIB3CYgetGECfDsINIIr0uWLFCkGKhi78khdXcSClugSOH+L1vHo88QwOBAfqmwOZAysg6gb9Z7EpBhmACHPxxRcXvF566aUmCTJ8BuyQbleuXFlw9xfAFbBDOhzM4A7oFRsAEdDDAIBuAHA3xJ820IHagR/xIuFiePe4AFXMsmXLDPiRokO/aiyJP8GBccOBzIG1UpwDjJBMhzJIj8MZANQl0OH8jsQ9DZbp93QcrvtN28V7cCA4UP8cqFtgrRTrS0mrlYo74gkOBAcmJgdqNnk1MdkduS6XA6o9MRUKahTWtYYJDtQTBwJY66m0Jgyt/ec26MNANXB1wpT8eMnohFcFjJeCHA/5QDq1fwakCbiqKr2wE2s85DHyMDE4EMA6Mco5l7kESEuZvt4EYFUZwFY5e+DPl+eVChN2wYE8cSCANU+lMcFpKUisAGo/5iK8DraqYoKzK7KfYw4EsOa4cCYsaSUk2QDXCVsb6jLjMXlVl8UWRAcHggN55kAAa55LJ2gLDgQHcsuBoUZRZ6gCqrEDKbdcCcJqzoHBKqYeJFlz2oKA4EA5HKAOl6rHZ0isnNbEwSVhggO14gDrVkv9qxU9kW5wYCgOcBAUuFlsCsAK6m7ZskWeeeaZYj/xHRzIhAPe+xc/PfFSkoG7xTM4kDUHOPZz69atdtQpaaeXDxaAFTUA6PuFL3xBHnnkETtuL2tCI73gABwoBla+qZ8BrFE/8sIBji5FCP2t3/otA1bqZhpYCzpWHDgNatOmTfKpT31KLrzwQjv/1D2zOJufrTUssRwmLxkOOuqHA8VA6XXNn/WTk6B0onGAm0LeffddU51yLKljo/OhAKxUZkRbKjseOcl/586dZwCpV3h/eiTxDA6MhgPFk6VUTkzUr9FwM8JkxQEwkroLTnL0J/W2uC43Y0FFTldqf4dQlyrcz2gqPXGMJlxWjIp0asOBdD2rDQWRanCgNAfSeAV+OZji27/TE/3YYbi6ydy1cvdxYd8TTzxhDkP9IYADLP48ssHC4Nd/5fgfLJ6wH78csErYXykrkct0g6hEfBHHxOMAdYjROz/Oa/ZbStJS6WD1bM2aNaZC/f8Brn2d0rks3HcAAAAASUVORK5CYII=;" vertex="1" parent="1">
          <mxGeometry x="-1655" y="774" width="551.33" height="453" as="geometry" />
        </mxCell>
        <mxCell id="9OoVXL_DygHniT45nHHC-18" value="" style="image;aspect=fixed;html=1;points=[];align=center;fontSize=12;image=img/lib/azure2/databases/Azure_Database_MySQL_Server.svg;" vertex="1" parent="1">
          <mxGeometry x="518" y="20" width="133.88" height="178.5" as="geometry" />
        </mxCell>
        <mxCell id="9OoVXL_DygHniT45nHHC-20" value="" style="image;aspect=fixed;html=1;points=[];align=center;fontSize=12;image=img/lib/azure2/databases/Azure_Database_PostgreSQL_Server.svg;" vertex="1" parent="1">
          <mxGeometry x="522" y="371" width="139.5" height="186" as="geometry" />
        </mxCell>
        <mxCell id="9OoVXL_DygHniT45nHHC-22" value="TCP" style="whiteSpace=wrap;html=1;fillColor=#dae8fc;strokeColor=#6c8ebf;" vertex="1" parent="1">
          <mxGeometry x="-124" y="632" width="66" height="30" as="geometry" />
        </mxCell>
      </root>
    </mxGraphModel>
  </diagram>
</mxfile>
